<svg xmlns="http://www.w3.org/2000/svg" xmlns:xlink="http://www.w3.org/1999/xlink" viewBox="0 0 739.23 258.49"><defs><style>.cls-1{fill:url(#linear-gradient);}.cls-2{fill:url(#linear-gradient-2);}.cls-3{fill:url(#linear-gradient-3);}.cls-4{fill:url(#linear-gradient-4);}.cls-5{fill:url(#linear-gradient-5);}.cls-6{fill:url(#linear-gradient-6);}.cls-7{fill:url(#linear-gradient-7);}.cls-8{fill:url(#linear-gradient-8);}.cls-9{fill:url(#linear-gradient-9);}.cls-10{fill:url(#linear-gradient-10);}.cls-11{fill:url(#linear-gradient-11);}.cls-12{fill:#fff;}.cls-13{fill:#0074e8;}.cls-14{fill:url(#linear-gradient-12);}.cls-15{fill:url(#linear-gradient-15);}.cls-16{fill:url(#linear-gradient-16);}.cls-17{fill:url(#linear-gradient-17);}</style><linearGradient id="linear-gradient" x1="23.19" y1="120" x2="68.78" y2="15.9" gradientUnits="userSpaceOnUse"><stop offset="0.26" stop-color="#0074e8"></stop><stop offset="0.34" stop-color="#006dda"></stop><stop offset="0.48" stop-color="#005bb5"></stop><stop offset="0.68" stop-color="#003d79"></stop><stop offset="0.91" stop-color="#00162c"></stop></linearGradient><linearGradient id="linear-gradient-2" x1="141.79" y1="127.63" x2="192.45" y2="11.99" xlink:href="#linear-gradient"></linearGradient><linearGradient id="linear-gradient-3" x1="262.54" y1="126.75" x2="310.58" y2="17.07" xlink:href="#linear-gradient"></linearGradient><linearGradient id="linear-gradient-4" x1="387.19" y1="119.83" x2="432.67" y2="15.99" xlink:href="#linear-gradient"></linearGradient><linearGradient id="linear-gradient-5" x1="512.38" y1="131.19" x2="565.39" y2="10.16" xlink:href="#linear-gradient"></linearGradient><linearGradient id="linear-gradient-6" x1="665.68" y1="135.78" x2="711.23" y2="31.8" xlink:href="#linear-gradient"></linearGradient><linearGradient id="linear-gradient-7" x1="24.89" y1="234.45" x2="71.12" y2="128.92" xlink:href="#linear-gradient"></linearGradient><linearGradient id="linear-gradient-8" x1="142.19" y1="232.83" x2="190.25" y2="123.1" xlink:href="#linear-gradient"></linearGradient><linearGradient id="linear-gradient-9" x1="279.87" y1="249.28" x2="325.41" y2="145.31" xlink:href="#linear-gradient"></linearGradient><linearGradient id="linear-gradient-10" x1="383.57" y1="240.26" x2="431.61" y2="130.57" xlink:href="#linear-gradient"></linearGradient><linearGradient id="linear-gradient-11" x1="495.05" y1="235.64" x2="543.05" y2="126.06" xlink:href="#linear-gradient"></linearGradient><linearGradient id="linear-gradient-12" x1="637.39" y1="206.26" x2="689.91" y2="96.14" gradientUnits="userSpaceOnUse"><stop offset="0" stop-color="#00162c"></stop><stop offset="0.64" stop-color="#0051a2"></stop><stop offset="1" stop-color="#0074e8"></stop></linearGradient><linearGradient id="linear-gradient-15" x1="645.28" y1="84.02" x2="605.47" y2="173.81" gradientUnits="userSpaceOnUse"><stop offset="0.26" stop-color="#0074e8"></stop><stop offset="0.35" stop-color="#006dda"></stop><stop offset="0.51" stop-color="#005bb5"></stop><stop offset="0.74" stop-color="#003d79"></stop><stop offset="1" stop-color="#00162c"></stop></linearGradient><linearGradient id="linear-gradient-16" x1="725.01" y1="119.38" x2="685.2" y2="209.16" xlink:href="#linear-gradient-15"></linearGradient><linearGradient id="linear-gradient-17" x1="685.15" y1="101.7" x2="645.33" y2="191.49" xlink:href="#linear-gradient-15"></linearGradient></defs><g id="Layer_2" data-name="Layer 2"><g id="Layer_1-2" data-name="Layer 1"><path class="cls-1" d="M85.29,0a20.61,20.61,0,0,1,15.14,6.22,20.61,20.61,0,0,1,6.21,15.14V35.55H82.51V26.33a2.08,2.08,0,0,0-.66-1.53,2.11,2.11,0,0,0-1.54-.66h-54a2.26,2.26,0,0,0-2.19,2.19V76.07a2.24,2.24,0,0,0,2.19,2.19h54a2.24,2.24,0,0,0,2.2-2.19V66.85h24.13V81A21.22,21.22,0,0,1,85.29,102.4H21.36A20.58,20.58,0,0,1,6.22,96.18,20.58,20.58,0,0,1,0,81V21.36A20.58,20.58,0,0,1,6.22,6.22,20.58,20.58,0,0,1,21.36,0Z"></path><path class="cls-2" d="M203.4,39.06V0H229V102.4H203.4V63.34H147.15V102.4h-25.6V0h25.6V39.06Z"></path><path class="cls-3" d="M327.52,0a20.59,20.59,0,0,1,15.14,6.22,20.62,20.62,0,0,1,6.22,15.14v31.3a21.39,21.39,0,0,1-19,21.22l19,28.52H320.5L301.48,74H268V102.4h-25.6V0Zm-2.78,47.69V26.33a2.08,2.08,0,0,0-.66-1.53,2.11,2.11,0,0,0-1.54-.66H268v25.6h54.56a2.25,2.25,0,0,0,1.54-.59A1.88,1.88,0,0,0,324.74,47.69Z"></path><path class="cls-4" d="M448.26,0a23.52,23.52,0,0,1,17.26,7.17,23.52,23.52,0,0,1,7.17,17.26V78a24.48,24.48,0,0,1-24.43,24.43h-62A24.46,24.46,0,0,1,361.81,78V24.43A23.51,23.51,0,0,1,369,7.17,23.54,23.54,0,0,1,386.23,0Zm.29,73.14V29.26a5.07,5.07,0,0,0-1.46-3.59,4.85,4.85,0,0,0-3.66-1.53H391.06a5.25,5.25,0,0,0-5.12,5.12V73.14a5.25,5.25,0,0,0,5.12,5.12h52.37a4.85,4.85,0,0,0,3.66-1.53A5.07,5.07,0,0,0,448.55,73.14Z"></path><path class="cls-5" d="M547.34,73.88,583.62,0h25.45V102.4h-25.6V53L559,102.4H535.78L511.35,53V102.4h-25.6V0h25.46Z"></path><path class="cls-6" d="M713.63,102.4l-7-15.8H655.7l-7,15.8h-25.6L666.23,0h29.84l43.16,102.4ZM665.79,64.07h30.72L681.15,25.16Z"></path><path class="cls-7" d="M89.53,113.51a21.22,21.22,0,0,1,21.36,21.35v14.19H86.75v-9.21a2.25,2.25,0,0,0-.59-1.54,2,2,0,0,0-1.61-.66H26.33a2.08,2.08,0,0,0-1.53.66,2.11,2.11,0,0,0-.66,1.54v49.74a2.26,2.26,0,0,0,2.19,2.19H84.55a2,2,0,0,0,1.61-.66,2.24,2.24,0,0,0,.59-1.53v-7.47h-31V159.29h55.15v35.26a21.24,21.24,0,0,1-21.22,21.36H21.36a20.58,20.58,0,0,1-15.14-6.22A20.58,20.58,0,0,1,0,194.55V134.86a20.61,20.61,0,0,1,6.22-15.14,20.61,20.61,0,0,1,15.14-6.21Z"></path><path class="cls-8" d="M203.4,189.58V113.51H229v81a21.24,21.24,0,0,1-21.36,21.36H143.71a21.24,21.24,0,0,1-21.36-21.36v-81H148v76.07a2.26,2.26,0,0,0,2.2,2.19h51.2a1.88,1.88,0,0,0,1.46-.66A2.24,2.24,0,0,0,203.4,189.58Z"></path><path class="cls-9" d="M327.81,215.91l-7-15.8H269.88l-7,15.8h-25.6l43.15-102.4h29.85l43.15,102.4ZM280,177.58H310.7l-15.36-38.91Z"></path><path class="cls-10" d="M448.55,113.51a21.22,21.22,0,0,1,21.36,21.35v31.31a21.37,21.37,0,0,1-19,21.21l19,28.53H441.53l-19-28.38H389v28.38h-25.6V113.51Zm-2.78,47.69V139.84a2.24,2.24,0,0,0-2.19-2.2H389v25.6h54.57a2.26,2.26,0,0,0,1.54-.58A1.9,1.9,0,0,0,445.77,161.2Z"></path><path class="cls-11" d="M566.85,215.91H485.4V113.51h84.41a23.71,23.71,0,0,1,23.7,23.69v15.45l-26,61.7Zm-57.17-24.14h54.57a4.82,4.82,0,0,0,3.51-1.46,5,5,0,0,0,1.46-3.66V142.76a5,5,0,0,0-1.46-3.65,4.79,4.79,0,0,0-3.51-1.47H509.68Z"></path><path class="cls-12" d="M10.25,258.49H3.1V229.91h7.15Z"></path><path class="cls-12" d="M47.43,248.08V229.91h7.15v28.58h-8.5L33.55,239.75v18.74H26.4V229.91h8.9Z"></path><path class="cls-12" d="M70.74,258.49V229.91H97.32v6.37H78v5H94.14v6.41H78v10.82Z"></path><path class="cls-12" d="M135.92,251.14V229.91h7.14v22.62a5.91,5.91,0,0,1-6,6H119.26a5.92,5.92,0,0,1-6-6V229.91h7.15v21.23a.58.58,0,0,0,.18.43.63.63,0,0,0,.43.19h14.3a.53.53,0,0,0,.4-.19A.61.61,0,0,0,135.92,251.14Z"></path><path class="cls-12" d="M184.49,241a4.73,4.73,0,0,1,4.7,4.73v6.7a5.85,5.85,0,0,1-1.73,4.25,5.69,5.69,0,0,1-4.19,1.75l-18.25,0a6,6,0,0,1-6-6v-2.78h6.74v1.39a.52.52,0,0,0,.18.41.65.65,0,0,0,.43.17l15.48-.05a.62.62,0,0,0,.43-.16.52.52,0,0,0,.18-.41l0-3.14a.54.54,0,0,0-.16-.41.56.56,0,0,0-.41-.16H163.71a4.75,4.75,0,0,1-4.7-4.74v-6.78a6,6,0,0,1,6-6h18.26a6,6,0,0,1,6,6v2.78h-6.74v-1.39a.54.54,0,0,0-.18-.41.62.62,0,0,0-.43-.16H166.36a.64.64,0,0,0-.43.16.54.54,0,0,0-.18.41v3.18a.52.52,0,0,0,.18.41.65.65,0,0,0,.43.17Z"></path><path class="cls-12" d="M205.18,258.49V229.91H231.4v6.37h-19v4.53h15.8v6.78h-15.8v4.53h19v6.37Z"></path><path class="cls-12" d="M270.89,229.91a6.62,6.62,0,0,1,6.62,6.61v15.36a6.62,6.62,0,0,1-6.62,6.61H247.33V229.91Zm-.16,20.42V238.08a1.35,1.35,0,0,0-.41-1,1.31,1.31,0,0,0-1-.41H254.11v15.11h15.23a1.34,1.34,0,0,0,1-.41A1.36,1.36,0,0,0,270.73,250.33Z"></path><path class="cls-12" d="M345.3,229.91a5.92,5.92,0,0,1,6,6v4h-6.74v-2.57a.61.61,0,0,0-.61-.61H328.84a.61.61,0,0,0-.61.61v13.88a.58.58,0,0,0,.18.43.61.61,0,0,0,.43.19h15.07a.61.61,0,0,0,.43-.19.58.58,0,0,0,.18-.43v-2.57h6.74v4a5.92,5.92,0,0,1-6,6H327.45a5.92,5.92,0,0,1-6-6V235.87a5.92,5.92,0,0,1,6-6Z"></path><path class="cls-12" d="M391.38,229.91a6.83,6.83,0,0,1,6.82,6.82v14.94a6.83,6.83,0,0,1-6.82,6.82H374.07a6.83,6.83,0,0,1-6.82-6.82V236.73a6.83,6.83,0,0,1,6.82-6.82Zm.09,20.42V238.08a1.39,1.39,0,0,0-.41-1,1.35,1.35,0,0,0-1-.43H375.42a1.35,1.35,0,0,0-1,.43,1.33,1.33,0,0,0-.43,1v12.25a1.36,1.36,0,0,0,.43,1,1.39,1.39,0,0,0,1,.43H390a1.38,1.38,0,0,0,1-.43A1.42,1.42,0,0,0,391.47,250.33Z"></path><path class="cls-12" d="M421.41,229.91v21.85h16.95v6.73h-24.1V229.91Z"></path><path class="cls-12" d="M477.84,229.91a6.83,6.83,0,0,1,6.82,6.82v14.94a6.83,6.83,0,0,1-6.82,6.82H460.52a6.83,6.83,0,0,1-6.82-6.82V236.73a6.83,6.83,0,0,1,6.82-6.82Zm.08,20.42V238.08a1.39,1.39,0,0,0-.41-1,1.33,1.33,0,0,0-1-.43H461.87a1.36,1.36,0,0,0-1,.43,1.33,1.33,0,0,0-.43,1v12.25a1.36,1.36,0,0,0,.43,1,1.4,1.4,0,0,0,1,.43h14.62a1.37,1.37,0,0,0,1-.43A1.42,1.42,0,0,0,477.92,250.33Z"></path><path class="cls-12" d="M524.48,229.91a5.92,5.92,0,0,1,6,6v8.74a6,6,0,0,1-5.31,5.92l5.31,8h-7.93l-5.3-7.92h-9.36v7.92h-7.14V229.91Zm-.77,13.31v-6a.63.63,0,0,0-.61-.61H507.86v7.14H523.1a.6.6,0,0,0,.42-.16A.52.52,0,0,0,523.71,243.22Z"></path><path class="cls-13" d="M597.37,229.91a6,6,0,0,1,6,6v8.74a6,6,0,0,1-6,6H581.53v7.92h-7.15V229.91Zm-.81,13.31v-6a.63.63,0,0,0-.17-.43.5.5,0,0,0-.4-.18H581.53v7.14H596a.52.52,0,0,0,.4-.16A.57.57,0,0,0,596.56,243.22Z"></path><path class="cls-13" d="M642.26,229.91a6,6,0,0,1,6,6v8.74a6,6,0,0,1-6,6H626.41v7.92h-7.14V229.91Zm-.82,13.31v-6a.62.62,0,0,0-.16-.43.54.54,0,0,0-.41-.18H626.41v7.14h14.46a.55.55,0,0,0,.57-.57Z"></path><path class="cls-13" d="M664.15,258.49V229.91h26.58v6.37H671.38v5h16.17v6.41H671.38v10.82Z"></path><polygon class="cls-14" points="643.82 113.51 600.67 215.91 575.19 215.91 618.34 113.51 643.82 113.51"></polygon><polygon class="cls-14" points="739.23 113.51 696.07 215.91 670.59 215.91 713.75 113.51 739.23 113.51"></polygon><polygon class="cls-14" points="691.53 113.51 648.37 215.91 622.89 215.91 666.05 113.51 691.53 113.51"></polygon><polygon class="cls-15" points="643.82 113.51 600.67 215.91 575.19 215.91 618.34 113.51 643.82 113.51"></polygon><polygon class="cls-16" points="739.23 113.51 696.07 215.91 670.59 215.91 713.75 113.51 739.23 113.51"></polygon><polygon class="cls-17" points="691.53 113.51 648.37 215.91 622.89 215.91 666.05 113.51 691.53 113.51"></polygon></g></g></svg>