<svg xmlns="http://www.w3.org/2000/svg" viewBox="0 0 2525.5 6558.24"><title> DEFENDER Background Tall</title><path d="M349.4,386.62H213.66V526.24H349.4a10.71,10.71,0,0,0,8-3.24,9.73,9.73,0,0,0,3.18-7.6V397.82a11.26,11.26,0,0,0-11.2-11.2Z"></path><path d="M0,0V6558.24H2525.5V0ZM430.14,530.06a65.65,65.65,0,0,1-65.72,65.72H144.12V317.08h220.3A63.32,63.32,0,0,1,411,336.54c12.73,12.88,19.18,28.44,19.18,46.26ZM1227.31,383h-174v38.52H1196.9v69.9H1053.32v38.89h174v65.51H979.38V383h-194v42.92H932.66v66.24H785.4V595.78H447.23V317.08H695.16V383h-174v38.52H664.75v69.9H521.16v38.89H711.47V317.08h515.84Zm291,212.82H1433l-116.2-174.15V705.35l-73.2-109.57V317.08h88.93l112.54,168.65V207.4l73.21,109.68Zm303.44-65.72A65.65,65.65,0,0,1,1756,595.78h-220.3V317.08H1756a63.32,63.32,0,0,1,46.54,19.46c12.73,12.88,19.18,28.44,19.18,46.26Zm475.87,65.72-50.91-76.19h-70.42v76.19H1838.82V317.08h247.93V383h-174v38.52h143.59v69.9H1912.75v38.89h190.31V317.08h214.81a59.49,59.49,0,0,1,59.49,59.49v83.88a57,57,0,0,1-15.4,39.71A59.26,59.26,0,0,1,2328,519l51.21,76.82Z"></path><path d="M1741,386.62H1605.25V526.24H1741a10.74,10.74,0,0,0,8-3.24,9.74,9.74,0,0,0,3.18-7.6V397.82a11.26,11.26,0,0,0-11.2-11.2Z"></path><path d="M2304.68,386.62H2176.27v63.79h128.42a2.36,2.36,0,0,0,2-.92,3.26,3.26,0,0,0,1.1-2.59V390.13a3.06,3.06,0,0,0-.92-2.59A2.66,2.66,0,0,0,2304.68,386.62Z"></path></svg>