<svg xmlns="http://www.w3.org/2000/svg" xmlns:xlink="http://www.w3.org/1999/xlink" viewBox="0 0 2305.56 520.01"><defs><style>.a{fill:#fff;}.b{fill:gray;}.c{fill:url(#a);}.d{fill:url(#b);}.e{fill:url(#c);}.f{fill:url(#d);}.g{fill:url(#e);}.h{fill:url(#f);}.i{fill:#7f716b;}.j{fill:#eaa211;}.k{fill:red;}.l{fill:url(#g);}.m{fill:url(#h);}.n{fill:url(#i);}.o{fill:url(#j);}.p{fill:url(#k);}.q{fill:url(#l);}.r{fill:url(#m);}.s{fill:url(#n);}.t{fill:url(#o);}.u{fill:url(#p);}.v{fill:url(#q);}.w{fill:url(#r);}.x{fill:url(#s);}.y{fill:url(#t);}.z{fill:url(#u);}.aa{fill:url(#v);}.ab{fill:url(#w);}.ac{fill:url(#x);}.ad{fill:#dd550a;}.ae{fill:#0074e8;}</style><linearGradient id="a" x1="1296.64" y1="514.7" x2="1432" y2="418.5" gradientUnits="userSpaceOnUse"><stop offset="0.01" stop-color="#3e0708"></stop><stop offset="0.08" stop-color="#7e2f0a"></stop><stop offset="0.38" stop-color="#c68734"></stop><stop offset="0.56" stop-color="#fff5d7"></stop><stop offset="0.78" stop-color="#d6ae7b"></stop><stop offset="0.8" stop-color="#d2a873"></stop><stop offset="0.93" stop-color="#9c4e17"></stop><stop offset="0.96" stop-color="#913c05"></stop></linearGradient><linearGradient id="b" x1="1375.38" y1="529.33" x2="1353.26" y2="403.87" xlink:href="#a"></linearGradient><linearGradient id="c" x1="1454.17" y1="550.15" x2="1659.39" y2="404.31" xlink:href="#a"></linearGradient><linearGradient id="d" x1="1561.87" y1="538.32" x2="1537.94" y2="402.58" xlink:href="#a"></linearGradient><linearGradient id="e" x1="1476.57" y1="374.97" x2="1528.94" y2="337.76" xlink:href="#a"></linearGradient><linearGradient id="f" x1="1518.44" y1="383.11" x2="1487.06" y2="329.62" xlink:href="#a"></linearGradient><linearGradient id="g" x1="-4.57" y1="160.1" x2="775.43" y2="58.1" gradientUnits="userSpaceOnUse"><stop offset="0" stop-color="#e7e3de"></stop><stop offset="0" stop-color="#dfdad3"></stop><stop offset="0.05" stop-color="#d1cbc6"></stop><stop offset="0.15" stop-color="#aba4a3"></stop><stop offset="0.26" stop-color="#7c7477"></stop><stop offset="0.52" stop-color="#f5f5f5"></stop><stop offset="0.58" stop-color="#e7e6e6"></stop><stop offset="0.68" stop-color="#c2bfc0"></stop><stop offset="0.82" stop-color="#878182"></stop><stop offset="0.88" stop-color="#6f6768"></stop><stop offset="1" stop-color="#ccc"></stop><stop offset="1" stop-color="#999"></stop></linearGradient><linearGradient id="h" x1="60.81" y1="189.17" x2="10.41" y2="103.26" xlink:href="#g"></linearGradient><linearGradient id="i" x1="-2.27" y1="177.74" x2="777.73" y2="75.74" xlink:href="#g"></linearGradient><linearGradient id="j" x1="160.89" y1="222.63" x2="97.41" y2="114.44" xlink:href="#g"></linearGradient><linearGradient id="k" x1="-0.16" y1="193.89" x2="779.84" y2="91.89" xlink:href="#g"></linearGradient><linearGradient id="l" x1="271.55" y1="227.2" x2="211.74" y2="125.26" xlink:href="#g"></linearGradient><linearGradient id="m" x1="0.77" y1="200.92" x2="780.77" y2="98.92" xlink:href="#g"></linearGradient><linearGradient id="n" x1="385.08" y1="190.19" x2="327.47" y2="91.99" xlink:href="#g"></linearGradient><linearGradient id="o" x1="2.29" y1="212.62" x2="782.29" y2="110.62" xlink:href="#g"></linearGradient><linearGradient id="p" x1="441.73" y1="198.78" x2="394.19" y2="117.75" xlink:href="#g"></linearGradient><linearGradient id="q" x1="3.49" y1="221.73" x2="783.49" y2="119.73" xlink:href="#g"></linearGradient><linearGradient id="r" x1="522.51" y1="215.64" x2="455.18" y2="100.88" xlink:href="#g"></linearGradient><linearGradient id="s" x1="5.19" y1="234.74" x2="785.19" y2="132.74" xlink:href="#g"></linearGradient><linearGradient id="t" x1="631.63" y1="208.19" x2="567.68" y2="99.19" xlink:href="#g"></linearGradient><linearGradient id="u" x1="7.37" y1="251.4" x2="787.37" y2="149.4" xlink:href="#g"></linearGradient><linearGradient id="v" x1="756.2" y1="220.64" x2="683.01" y2="95.88" xlink:href="#g"></linearGradient><linearGradient id="w" x1="190.36" y1="63.61" x2="246.75" y2="24.13" xlink:href="#g"></linearGradient><linearGradient id="x" x1="235.23" y1="72.76" x2="201.87" y2="14.98" xlink:href="#g"></linearGradient></defs><title>Defender Logo Sting 2</title><path class="a" d="M637.28,332.18H598.46v49.1h38.81a11.57,11.57,0,0,0,11.58-11.58V343.76a11.62,11.62,0,0,0-11.58-11.58Zm-.67,34.94a1.71,1.71,0,0,1-.56,1.34,1.89,1.89,0,0,1-1.41.57H610.72v-24.6h23.92a2,2,0,0,1,2,2Z"></path><polygon class="a" points="698.42 332.18 698.42 369.74 664.89 369.74 664.89 362.89 690.19 362.89 690.19 350.57 664.89 350.57 664.89 343.79 695.55 343.79 695.55 332.18 651.87 332.18 651.87 381.28 711.45 381.28 711.45 363.02 737.39 363.02 737.39 351.35 711.45 351.35 711.45 343.79 745.62 343.79 745.62 381.28 789.3 381.28 789.3 369.74 758.65 369.74 758.65 362.89 783.94 362.89 783.94 350.57 758.65 350.57 758.65 343.79 789.3 343.79 789.3 332.18 698.42 332.18"></polygon><path class="a" d="M882.45,332.18H843.63v49.1h38.81A11.57,11.57,0,0,0,894,369.7V343.76a11.62,11.62,0,0,0-11.58-11.58Zm-.67,34.94a1.72,1.72,0,0,1-.56,1.34,1.89,1.89,0,0,1-1.41.57H855.89v-24.6H879.8a2,2,0,0,1,2,2Z"></path><path class="a" d="M956.49,381.28V367.86h12.41l9,13.42h14.39l-9-13.53a10.44,10.44,0,0,0,6-3.31,10,10,0,0,0,2.71-7V342.66a10.48,10.48,0,0,0-10.48-10.48H943.59v37.56H910.06v-6.85h25.3V350.57h-25.3v-6.79h30.65V332.18H897v49.1Zm23.18-26.23a.57.57,0,0,1-.19.46.42.42,0,0,1-.36.16H956.49V344.43h22.62a.47.47,0,0,1,.39.16.54.54,0,0,1,.16.46Z"></path><path class="b" d="M718,520H699V458.47L669.49,520h-22.2l-29.51-61.54V520h-19V422.22l21.64.14,37.94,80.51,37.94-80.65H718Z"></path><path class="b" d="M810.77,503.86h-56.9L746.7,520H728.29l41.17-97.79h25.71L836.34,520H818.08Zm-28.38-69.41-21.08,53.67h42Z"></path><path class="b" d="M926.14,422.22v17.56H886.8V520h-19V439.79H828.49V422.22Z"></path><path class="b" d="M1036.77,422.22v17.56H997.43V520h-19V439.79H939.12V422.22Z"></path><path class="b" d="M1135.74,438.38H1069v23.89h55.08V480H1069v24h66.74v16h-86V422.22h86Z"></path><polygon class="b" points="827.67 361.89 807.84 332.18 792.17 332.18 792.17 381.28 805.07 400.58 805.07 350.6 825.54 381.28 840.57 381.28 840.57 332.18 827.67 312.86 827.67 361.89"></polygon><path class="a" d="M1336.57,333.59h-36v45.56h36a10.73,10.73,0,0,0,10.74-10.74V344.33a10.78,10.78,0,0,0-10.74-10.74Zm-.62,32.42a1.59,1.59,0,0,1-.52,1.24,1.75,1.75,0,0,1-1.31.53h-22.19V345h22.19a1.84,1.84,0,0,1,1.83,1.83Z"></path><polygon class="a" points="1393.3 333.59 1393.3 368.44 1362.19 368.44 1362.19 362.08 1385.66 362.08 1385.66 350.65 1362.19 350.65 1362.19 344.36 1390.63 344.36 1390.63 333.59 1350.11 333.59 1350.11 379.15 1405.39 379.15 1405.39 362.2 1429.46 362.2 1429.46 351.37 1405.39 351.37 1405.39 344.36 1437.1 344.36 1437.1 379.15 1477.63 379.15 1477.63 368.44 1449.19 368.44 1449.19 362.08 1472.66 362.08 1472.66 350.65 1449.19 350.65 1449.19 344.36 1477.63 344.36 1477.63 333.59 1393.3 333.59"></polygon><path class="a" d="M1564.06,333.59h-36v45.56h36a10.73,10.73,0,0,0,10.74-10.74V344.33a10.78,10.78,0,0,0-10.74-10.74Zm-.62,32.42a1.59,1.59,0,0,1-.52,1.24,1.76,1.76,0,0,1-1.31.53h-22.19V345h22.19a1.84,1.84,0,0,1,1.83,1.83Z"></path><path class="a" d="M1632.76,379.15V366.69h11.51l8.32,12.46h13.35l-8.37-12.56a9.69,9.69,0,0,0,5.55-3.07,9.32,9.32,0,0,0,2.52-6.49V343.31a9.73,9.73,0,0,0-9.73-9.73H1620.8v34.85h-31.11v-6.36h23.47V350.65h-23.47v-6.3h28.44V333.59H1577.6v45.56Zm21.51-24.34a.53.53,0,0,1-.18.42.39.39,0,0,1-.33.15h-21V345h21a.44.44,0,0,1,.36.15.5.5,0,0,1,.15.42Z"></path><polygon class="c" points="1364.25 484.55 1329.34 413.19 1300.42 413.19 1300.42 520.01 1330.28 520.01 1330.28 477.36 1351.36 520.01 1377.28 520.01 1398.36 477.36 1398.36 520.01 1428.22 520.01 1428.22 413.19 1399.29 413.19 1364.25 484.55"></polygon><path class="d" d="M1427.29,414.11v105h-28v-45.7l-1.76,3.56-20.82,42.14h-24.77l-20.82-42.14-1.76-3.56v45.7h-28v-105h27.42L1363.41,485l.83,1.7.83-1.7,34.79-70.84h27.42m.93-.93h-28.92l-35,71.36-34.9-71.36h-28.92V520h29.86V477.36L1351.36,520h25.92l21.08-42.66V520h29.86V413.18Z"></path><path class="e" d="M1665.69,413.18h-34.63l-20.76,29.12-20.76-29.12h-34.63l38,53.41-37.63,52.9-44.8-106.31h-32.7l-45,106.83h30.19l7-15.83h48.29l7,15.83h64.23l20.76-29.12L1631.06,520h34.63l-38.15-53.41ZM1506.43,477.4h-24.61l12.31-31.17Z"></path><path class="f" d="M1663.89,414.11l-37.11,51.95-.39.54.39.54,37.11,51.95h-32.35l-20.48-28.73-.76-1.06-.76,1.06-20.48,28.73h-32.35l37-51.95.38-.54-.38-.54-37-51.95h32.35l20.48,28.73.76,1.06.76-1.06,20.48-28.73h32.35m-154,0,44.24,105h-28.19l-6.79-15.28-.24-.55h-49.5l-.24.55-6.79,15.28h-28.19l44.24-105h31.47m-29.4,64.21h27.34l-.5-1.27L1495,445.89l-.86-2.19-.86,2.19L1481,477.06l-.5,1.27m185.24-65.14h-34.63l-20.76,29.12-20.76-29.12h-34.63l38,53.41-37.63,52.9-44.8-106.31h-32.7l-45,106.83h30.19l7-15.83h48.29l7,15.83h64.23l20.76-29.12L1631.06,520h34.63l-38.15-53.41,38.15-53.41ZM1481.82,477.4l12.31-31.17,12.31,31.17Z"></path><polygon class="g" points="1513.23 361.16 1494.84 333.59 1480.3 333.59 1480.3 379.15 1492.27 397.06 1492.27 350.68 1511.26 379.15 1525.2 379.15 1525.2 333.59 1513.23 315.66 1513.23 361.16"></polygon><path class="h" d="M1514.16,318.72l10.11,15.15v44.35h-12.51L1493,350.16l-1.7-2.55V394l-10.11-15.13V334.52h13.11l18.12,27.16,1.7,2.55v-45.5m-.93-3.06v45.5l-18.4-27.57H1480.3v45.56l12,17.91V350.68l19,28.47h13.94V333.59l-12-17.93Z"></path><path class="a" d="M953.33,25.11H914.52v49.1h38.81a11.57,11.57,0,0,0,11.58-11.58V36.69a11.62,11.62,0,0,0-11.58-11.58Zm-.67,34.94a1.71,1.71,0,0,1-.56,1.34,1.89,1.89,0,0,1-1.41.57H926.77V37.36h23.92a2,2,0,0,1,2,2Z"></path><polygon class="a" points="1014.47 25.11 1014.47 62.67 980.95 62.67 980.95 55.82 1006.24 55.82 1006.24 43.5 980.95 43.5 980.95 36.72 1011.6 36.72 1011.6 25.11 967.92 25.11 967.92 74.21 1027.5 74.21 1027.5 55.95 1053.44 55.95 1053.44 44.28 1027.5 44.28 1027.5 36.72 1061.67 36.72 1061.67 74.21 1105.35 74.21 1105.35 62.67 1074.7 62.67 1074.7 55.82 1100 55.82 1100 43.5 1074.7 43.5 1074.7 36.72 1105.35 36.72 1105.35 25.11 1014.47 25.11"></polygon><path class="a" d="M1198.5,25.11h-38.81v49.1h38.81a11.57,11.57,0,0,0,11.58-11.58V36.69a11.62,11.62,0,0,0-11.58-11.58Zm-.67,34.94a1.72,1.72,0,0,1-.56,1.34,1.89,1.89,0,0,1-1.41.57h-23.91V37.36h23.91a2,2,0,0,1,2,2Z"></path><path class="a" d="M1272.54,74.21V60.79h12.41l9,13.42h14.39l-9-13.53a10.44,10.44,0,0,0,6-3.31,10,10,0,0,0,2.71-7V35.59a10.48,10.48,0,0,0-10.48-10.48h-37.84V62.67h-33.53V55.82h25.3V43.5h-25.3V36.72h30.65V25.11h-43.68v49.1ZM1295.72,48a.57.57,0,0,1-.19.46.42.42,0,0,1-.36.16h-22.62V37.36h22.62a.47.47,0,0,1,.39.16.54.54,0,0,1,.16.46Z"></path><path class="i" d="M932.14,212.94a18.23,18.23,0,0,1-18.27-18.27V115.15h19v74.47a5.76,5.76,0,0,0,5.76,5.76h46.79a5.76,5.76,0,0,0,5.76-5.76V115.15h19v79.53a18.23,18.23,0,0,1-18.27,18.27Z"></path><path class="i" d="M1023.56,115.15h19v80.23h62.24v17.56h-81.21Z"></path><path class="i" d="M1193.77,115.15v17.56h-39.34v80.23h-19V132.72h-39.34V115.15Z"></path><path class="i" d="M1225.71,212.94h-19V115.15h19Z"></path><path class="i" d="M1358.13,212.94h-19V151.4l-29.51,61.54h-22.2L1258,151.4v61.54h-19V115.15l21.64.14,37.94,80.51,37.94-80.65h21.64Z"></path><path class="i" d="M1450.93,196.79H1394l-7.17,16.16h-18.41l41.17-97.79h25.71l41.17,97.79h-18.27Zm-28.38-69.41L1401.48,181h42Z"></path><path class="i" d="M1566.3,115.15v17.56H1527v80.23h-19V132.72h-39.34V115.15Z"></path><path class="i" d="M1665.27,131.31h-66.74V155.2h55.08v17.7h-55.08v24h66.74v16h-86V115.15h86Z"></path><polygon class="j" points="1143.72 54.82 1123.89 25.11 1108.23 25.11 1108.23 74.21 1121.12 93.51 1121.12 43.53 1141.6 74.21 1156.62 74.21 1156.62 25.11 1143.72 5.79 1143.72 54.82"></polygon><path class="k" d="M932.14,212.94a18.23,18.23,0,0,1-18.27-18.27V115.15h19v74.47a5.76,5.76,0,0,0,5.76,5.76h46.79a5.76,5.76,0,0,0,5.76-5.76V115.15h19v79.53a18.23,18.23,0,0,1-18.27,18.27Z"></path><path class="k" d="M1023.56,115.15h19v80.23h62.24v17.56h-81.21Z"></path><path class="k" d="M1193.77,115.15v17.56h-39.34v80.23h-19V132.72h-39.34V115.15Z"></path><path class="k" d="M1225.71,212.94h-19V115.15h19Z"></path><path class="k" d="M1358.13,212.94h-19V151.4l-29.51,61.54h-22.2L1258,151.4v61.54h-19V115.15l21.64.14,37.94,80.51,37.94-80.65h21.64Z"></path><path class="k" d="M1450.93,196.79H1394l-7.17,16.16h-18.41l41.17-97.79h25.71l41.17,97.79h-18.27Zm-28.38-69.41L1401.48,181h42Z"></path><path class="k" d="M1566.3,115.15v17.56H1527v80.23h-19V132.72h-39.34V115.15Z"></path><path class="k" d="M1665.27,131.31h-66.74V155.2h55.08v17.7h-55.08v24h66.74v16h-86V115.15h86Z"></path><polygon class="k" points="1143.72 54.82 1123.89 25.11 1108.23 25.11 1108.23 74.21 1121.12 93.51 1121.12 43.53 1141.6 74.21 1156.62 74.21 1156.62 25.11 1143.72 5.79 1143.72 54.82"></polygon><path class="a" d="M39.46,19.32H.65v49.1H39.46A11.57,11.57,0,0,0,51,56.84V30.9a11.24,11.24,0,0,0-3.38-8.15A11.16,11.16,0,0,0,39.46,19.32Zm-.67,34.94a1.71,1.71,0,0,1-.56,1.34,1.89,1.89,0,0,1-1.41.57H12.9V31.57H36.81a2,2,0,0,1,2,2Z"></path><polygon class="a" points="100.6 19.32 100.6 56.88 67.07 56.88 67.07 50.03 92.37 50.03 92.37 37.72 67.07 37.72 67.07 30.93 97.73 30.93 97.73 19.32 54.05 19.32 54.05 68.42 113.63 68.42 113.63 50.16 139.57 50.16 139.57 38.49 113.63 38.49 113.63 30.93 147.8 30.93 147.8 68.42 191.48 68.42 191.48 56.88 160.83 56.88 160.83 50.03 186.12 50.03 186.12 37.72 160.83 37.72 160.83 30.93 191.48 30.93 191.48 19.32 100.6 19.32"></polygon><path class="a" d="M284.63,19.32H245.81v49.1h38.81a11.57,11.57,0,0,0,11.58-11.58V30.9a11.24,11.24,0,0,0-3.38-8.15A11.16,11.16,0,0,0,284.63,19.32ZM284,54.26a1.72,1.72,0,0,1-.56,1.34,1.89,1.89,0,0,1-1.41.57H258.07V31.57H282a2,2,0,0,1,2,2Z"></path><path class="a" d="M358.67,68.42V55h12.41l9,13.42h14.39l-9-13.53a10.44,10.44,0,0,0,6-3.31,10,10,0,0,0,2.71-7V29.8a10.48,10.48,0,0,0-10.48-10.48H345.77V56.88H312.24V50h25.3V37.72h-25.3V30.93H342.9V19.32H299.22v49.1ZM381.85,42.2a.57.57,0,0,1-.19.46.42.42,0,0,1-.36.16H358.67V31.57h22.62a.47.47,0,0,1,.39.16.54.54,0,0,1,.16.46Z"></path><path class="l" d="M93.16,159.81a18.23,18.23,0,0,1-18.27,18.13H19v29.23H0V109.37H74.89a17.5,17.5,0,0,1,12.93,5.41,17.68,17.68,0,0,1,5.34,12.86Zm-23.32.7a5.44,5.44,0,0,0,4.07-1.76,5.78,5.78,0,0,0,1.69-4.14V132.83a5.72,5.72,0,0,0-1.69-4.22,5.55,5.55,0,0,0-4.07-1.69H19v33.58Z"></path><path class="m" d="M74.89,110.37a16.4,16.4,0,0,1,12.21,5.11,16.79,16.79,0,0,1,5.05,12.15v32.18a17.23,17.23,0,0,1-17.27,17.13H18v29.23H1V110.37H74.89M18,161.51H69.83a6.43,6.43,0,0,0,4.8-2.06,6.78,6.78,0,0,0,2-4.84V132.83a6.71,6.71,0,0,0-2-4.92,6.54,6.54,0,0,0-4.78-2H18v35.58m56.92-52.14H0v97.79H19V177.93H74.89a18.23,18.23,0,0,0,18.27-18.12V127.63a17.68,17.68,0,0,0-5.34-12.86,17.5,17.5,0,0,0-12.93-5.41ZM19,160.51V126.93H69.83a5.55,5.55,0,0,1,4.07,1.69,5.72,5.72,0,0,1,1.69,4.22v21.78a5.78,5.78,0,0,1-1.69,4.14,5.44,5.44,0,0,1-4.07,1.76Z"></path><path class="n" d="M106.05,109.37h19v80.23h62.24v17.56H106.05Z"></path><path class="o" d="M124,110.37v80.23h62.24v15.56H107.05V110.37h17m1-1h-19v97.79h81.21V189.59H125V109.37Z"></path><path class="p" d="M280.14,191h-56.9l-7.17,16.16H197.66l41.17-97.79h25.71l41.17,97.79H287.44Zm-28.38-69.41-21.08,53.67h42Z"></path><path class="q" d="M263.88,110.37l40.33,95.79H288.09l-7-15.57-.27-.59h-58.2l-.26.59-6.9,15.56H199.17l40.33-95.79h24.38m-34.66,65.9h44.94l-.53-1.36-20.94-53.67-.93-2.38-.93,2.38L229.75,174.9l-.54,1.37m35.33-66.9H238.83l-41.17,97.79h18.41L223.23,191h56.9l7.31,16.16h18.27l-41.17-97.79Zm-33.86,65.9,21.08-53.67,20.94,53.67Z"></path><path class="r" d="M395.51,109.37v17.56H356.17v80.23h-19V126.93H297.86V109.37Z"></path><path class="s" d="M394.51,110.37v15.56H355.17v80.23h-17V125.93H298.86V110.37h95.65m1-1H297.86v17.56H337.2v80.23h19V126.93h39.34V109.37Z"></path><path class="t" d="M427.44,207.16h-19V109.37h19Z"></path><path class="u" d="M426.44,110.37v95.79h-17V110.37h17m1-1h-19v97.79h19V109.37Z"></path><path class="v" d="M537,207.16H511.25l-51.57-77.28v77.28h-19V109.37h27.12L518,184.54V109.37h19Z"></path><path class="w" d="M536,110.37v95.79H511.79l-51.27-76.83-1.83-2.75v79.58h-17V110.37H467.3l49.86,74.73,1.83,2.75V110.37h17m1-1H518v75.17l-50.16-75.17H440.72v97.79h19V129.88l51.57,77.28H537V109.37Z"></path><path class="x" d="M568.61,207.16a18.23,18.23,0,0,1-18.27-18.27V109.37h19v74.47a5.76,5.76,0,0,0,5.76,5.76h46.79a5.76,5.76,0,0,0,5.76-5.76V109.37h19v79.53a18.23,18.23,0,0,1-18.27,18.27Z"></path><path class="y" d="M645.59,110.37v78.53a16.72,16.72,0,0,1-5,12.22,16.5,16.5,0,0,1-12.22,5H568.61a17.23,17.23,0,0,1-17.27-17.27V110.37h17v73.47a6.76,6.76,0,0,0,6.76,6.76h46.79a6.76,6.76,0,0,0,6.76-6.76V110.37h17m1-1h-19v74.47a5.76,5.76,0,0,1-5.76,5.76H575.07a5.76,5.76,0,0,1-5.76-5.76V109.37h-19v79.53a18.23,18.23,0,0,0,18.27,18.27h59.71a18.23,18.23,0,0,0,18.27-18.27V109.37Z"></path><path class="z" d="M779.18,207.16h-19V145.62l-29.51,61.54h-22.2L679,145.62v61.54H660V109.37l21.64.14L719.61,190l37.94-80.65h21.64Z"></path><path class="aa" d="M778.18,110.37v95.79h-17V141.22l-1.9,4-29.23,61H709.14l-29.23-61-1.9-4v64.94H661V110.37l20,.13,37.67,79.94.91,1.92.9-1.92,37.67-80.08h20m1-1H757.54L719.61,190l-37.94-80.51L660,109.37v97.79h19V145.62l29.51,61.54h22.2l29.51-61.54v61.54h19V109.37Z"></path><polygon class="ab" points="229.85 49.04 210.02 19.32 194.35 19.32 194.35 68.42 207.25 87.73 207.25 37.74 227.72 68.42 242.75 68.42 242.75 19.32 229.85 0 229.85 49.04"></polygon><path class="ac" d="M231,3.73l10.64,15.94V67.29H228.33L208.19,37.12,206.12,34V84L195.49,68.08V20.45h13.93l19.49,29.21,2.07,3.1v-49M229.85,0V49L210,19.32H194.36v49.1l12.9,19.3v-50l20.47,30.68h15V19.32L229.85,0Z"></path><path class="a" d="M1839.42,25.65h-38.81v49.1h38.81A11.57,11.57,0,0,0,1851,63.17V37.22a11.62,11.62,0,0,0-11.58-11.58Zm-.67,34.94a1.71,1.71,0,0,1-.56,1.34,1.89,1.89,0,0,1-1.41.57h-23.92V37.9h23.92a2,2,0,0,1,2,2Z"></path><polygon class="a" points="1900.57 25.65 1900.57 63.2 1867.04 63.2 1867.04 56.35 1892.34 56.35 1892.34 44.04 1867.04 44.04 1867.04 37.25 1897.69 37.25 1897.69 25.65 1854.01 25.65 1854.01 74.75 1913.59 74.75 1913.59 56.48 1939.54 56.48 1939.54 44.81 1913.59 44.81 1913.59 37.25 1947.77 37.25 1947.77 74.75 1991.45 74.75 1991.45 63.2 1960.79 63.2 1960.79 56.35 1986.09 56.35 1986.09 44.04 1960.79 44.04 1960.79 37.25 1991.45 37.25 1991.45 25.65 1900.57 25.65"></polygon><path class="a" d="M2084.59,25.65h-38.81v49.1h38.81a11.57,11.57,0,0,0,11.58-11.58V37.22a11.62,11.62,0,0,0-11.58-11.58Zm-.67,34.94a1.72,1.72,0,0,1-.56,1.34,1.89,1.89,0,0,1-1.41.57H2058V37.9h23.91a2,2,0,0,1,2,2Z"></path><path class="a" d="M2158.63,74.75V61.32H2171l9,13.42h14.39l-9-13.53a10.44,10.44,0,0,0,6-3.31,10,10,0,0,0,2.71-7V36.13a10.48,10.48,0,0,0-10.48-10.48h-37.84V63.2h-33.53V56.35h25.3V44h-25.3V37.25h30.65V25.65h-43.68v49.1Zm23.18-26.23a.57.57,0,0,1-.19.46.42.42,0,0,1-.36.16h-22.62V37.9h22.62a.47.47,0,0,1,.39.16.54.54,0,0,1,.16.46Z"></path><path class="ad" d="M1818.23,212.41A18.23,18.23,0,0,1,1800,194.14V114.62h19v74.47a5.76,5.76,0,0,0,5.76,5.76h46.79a5.76,5.76,0,0,0,5.76-5.76V114.62h19v79.53a18.23,18.23,0,0,1-18.27,18.27Z"></path><path class="ad" d="M1909.66,114.62h19v80.23h62.24v17.56h-81.21Z"></path><path class="ad" d="M2079.86,114.62v17.56h-39.34v80.23h-19V132.18h-39.34V114.62Z"></path><path class="ad" d="M2165.35,212.41l-19.53-29.23h-34v29.23h-19V114.62h77.84a17.5,17.5,0,0,1,12.93,5.41,17.68,17.68,0,0,1,5.34,12.86v32.18a17.37,17.37,0,0,1-4.71,12.15,18.28,18.28,0,0,1-11.59,6l-6,.56,19.11,28.66Zm-53.53-80.23v33.58h53.81a5.44,5.44,0,0,0,4.07-1.76,5.78,5.78,0,0,0,1.69-4.14V138.08a5.72,5.72,0,0,0-1.69-4.22,5.55,5.55,0,0,0-4.07-1.69Z"></path><path class="ad" d="M2280,196.25h-56.9l-7.17,16.16h-18.41l41.17-97.79h25.71l41.17,97.79h-18.27Zm-28.38-69.41-21.08,53.67h42Z"></path><polygon class="ad" points="2029.82 55.36 2009.99 25.65 1994.32 25.65 1994.32 74.75 2007.22 94.05 2007.22 44.06 2027.69 74.75 2042.71 74.75 2042.71 25.65 2029.82 6.32 2029.82 55.36"></polygon><path class="a" d="M1851.75,343.95h-38.81V393h38.81a11.57,11.57,0,0,0,11.58-11.58V355.53a11.62,11.62,0,0,0-11.58-11.58Zm-.67,34.94a1.71,1.71,0,0,1-.56,1.34,1.89,1.89,0,0,1-1.41.57h-23.92V356.2h23.92a2,2,0,0,1,2,2Z"></path><polygon class="a" points="1912.9 343.95 1912.9 381.51 1879.37 381.51 1879.37 374.66 1904.67 374.66 1904.67 362.34 1879.37 362.34 1879.37 355.56 1910.02 355.56 1910.02 343.95 1866.34 343.95 1866.34 393.05 1925.92 393.05 1925.92 374.79 1951.87 374.79 1951.87 363.12 1925.92 363.12 1925.92 355.56 1960.1 355.56 1960.1 393.05 2003.78 393.05 2003.78 381.51 1973.12 381.51 1973.12 374.66 1998.42 374.66 1998.42 362.34 1973.12 362.34 1973.12 355.56 2003.78 355.56 2003.78 343.95 1912.9 343.95"></polygon><path class="a" d="M2096.92,343.95h-38.81V393h38.81a11.57,11.57,0,0,0,11.58-11.58V355.53a11.62,11.62,0,0,0-11.58-11.58Zm-.67,34.94a1.72,1.72,0,0,1-.56,1.34,1.89,1.89,0,0,1-1.41.57h-23.91V356.2h23.91a2,2,0,0,1,2,2Z"></path><path class="a" d="M2171,393V379.63h12.41l9,13.42h14.39l-9-13.53a10.44,10.44,0,0,0,6-3.31,10,10,0,0,0,2.71-7V354.43a10.48,10.48,0,0,0-10.48-10.48h-37.84v37.56h-33.53v-6.85h25.3V362.34h-25.3v-6.79h30.65V343.95h-43.68V393Zm23.18-26.23a.57.57,0,0,1-.19.46.42.42,0,0,1-.36.16H2171V356.2h22.62a.47.47,0,0,1,.39.16.54.54,0,0,1,.16.46Z"></path><polygon class="ae" points="2042.15 373.66 2022.32 343.95 2006.65 343.95 2006.65 393.05 2019.55 412.35 2019.55 362.37 2040.02 393.05 2055.04 393.05 2055.04 343.95 2042.15 324.63 2042.15 373.66"></polygon><path class="ae" d="M1878.35,465V431.24h22.15v88.58h-22.15V486h-44.16v33.79H1812V431.24h22.15V465Z"></path><path class="a" d="M1951.75,493.37l-18.85,26.45h-25.44L1939,475.53l-31.51-44.29h25.44l18.85,26.45,18.85-26.45H1996l-31.64,44.29Z"></path><path class="ae" d="M2075.82,431.24a20.52,20.52,0,0,1,20.5,20.5v47.58a20.52,20.52,0,0,1-20.5,20.5h-73V431.24Zm-.51,63.27v-38a4.3,4.3,0,0,0-1.27-3.16,4.15,4.15,0,0,0-3-1.26h-47.2v46.82H2071a4.14,4.14,0,0,0,3-1.27A4.29,4.29,0,0,0,2075.31,494.51Z"></path><path class="ae" d="M2180.12,431.24a18.36,18.36,0,0,1,18.48,18.48v27.08a18.49,18.49,0,0,1-16.45,18.35l16.45,24.68H2174l-16.45-24.55h-29v24.55h-22.15V431.24Zm-2.4,41.25V454a1.95,1.95,0,0,0-1.9-1.9h-47.2v22.14h47.2a1.93,1.93,0,0,0,1.33-.51A1.62,1.62,0,0,0,2177.71,472.49Z"></path><path class="ae" d="M2283,431.24a21.17,21.17,0,0,1,21.13,21.13v46.31A21.17,21.17,0,0,1,2283,519.82h-53.65a21.17,21.17,0,0,1-21.13-21.13V452.37a21.17,21.17,0,0,1,21.13-21.13Zm.25,63.27v-38a4.36,4.36,0,0,0-1.27-3.1,4.19,4.19,0,0,0-3.16-1.33h-45.3a4.54,4.54,0,0,0-4.43,4.43v38a4.54,4.54,0,0,0,4.43,4.43h45.3a4.19,4.19,0,0,0,3.16-1.33A4.36,4.36,0,0,0,2283.3,494.51Z"></path><polygon class="ae" points="1969.76 482.93 1996.04 519.82 1970.6 519.82 1957.11 500.77 1969.76 482.93"></polygon><path class="a" d="M40.1,326.39H1.29v49.1H40.1a11.57,11.57,0,0,0,11.58-11.58V338A11.62,11.62,0,0,0,40.1,326.39Zm-.67,34.94a1.71,1.71,0,0,1-.56,1.34,1.89,1.89,0,0,1-1.41.57H13.54v-24.6H37.46a2,2,0,0,1,2,2Z"></path><polygon class="a" points="101.25 326.39 101.25 363.95 67.72 363.95 67.72 357.1 93.02 357.1 93.02 344.79 67.72 344.79 67.72 338 98.37 338 98.37 326.39 54.69 326.39 54.69 375.49 114.27 375.49 114.27 357.23 140.22 357.23 140.22 345.56 114.27 345.56 114.27 338 148.45 338 148.45 375.49 192.13 375.49 192.13 363.95 161.47 363.95 161.47 357.1 186.77 357.1 186.77 344.79 161.47 344.79 161.47 338 192.13 338 192.13 326.39 101.25 326.39"></polygon><path class="a" d="M285.27,326.39H246.46v49.1h38.81a11.57,11.57,0,0,0,11.58-11.58V338a11.62,11.62,0,0,0-11.58-11.58Zm-.67,34.94a1.72,1.72,0,0,1-.56,1.34,1.89,1.89,0,0,1-1.41.57H258.71v-24.6h23.91a2,2,0,0,1,2,2Z"></path><path class="a" d="M359.31,375.49V362.07h12.41l9,13.42h14.39l-9-13.53a10.44,10.44,0,0,0,6-3.31,10,10,0,0,0,2.71-7V336.87a10.48,10.48,0,0,0-10.48-10.48H346.42V364H312.89V357.1h25.3V344.79h-25.3V338h30.65V326.39H299.86v49.1Zm23.18-26.23a.57.57,0,0,1-.19.46.42.42,0,0,1-.36.16H359.31V338.64h22.62a.47.47,0,0,1,.39.16.54.54,0,0,1,.16.46Z"></path><path class="a" d="M104.2,473.34v22.34a17.84,17.84,0,0,1-5.34,13,17.33,17.33,0,0,1-12.79,5.41l-67.16.14a17.44,17.44,0,0,1-14.05-6.6A18.47,18.47,0,0,1,.65,495.4v-5.62a.25.25,0,0,1,.28-.28l16.86-.14a.25.25,0,0,1,.28.28v.84a5.91,5.91,0,0,0,5.9,6.18l56.9-.14a5.6,5.6,0,0,0,4.64-2.39,6.28,6.28,0,0,0,1.12-3.79V476.57a3.21,3.21,0,0,0-.91-2.25,3,3,0,0,0-2.32-1H16.66a15.42,15.42,0,0,1-11.31-4.71A15.42,15.42,0,0,1,.65,457.32V434.84a17.84,17.84,0,0,1,5.34-13,17.5,17.5,0,0,1,12.93-5.41h67a17.5,17.5,0,0,1,12.93,5.41,17.84,17.84,0,0,1,5.34,13V441a.25.25,0,0,1-.28.28h-17a.25.25,0,0,1-.28-.28v-.84a5.84,5.84,0,0,0-1.76-4.29,6,6,0,0,0-4.43-1.76H24.25a6.07,6.07,0,0,0-4.36,1.76,5.72,5.72,0,0,0-1.83,4.29v13.91a3,3,0,0,0,1,2.32,3.2,3.2,0,0,0,2.25.91H88.18a16.07,16.07,0,0,1,16,16Z"></path><path class="a" d="M194.22,498.07h-56.9l-7.17,16.16H111.74l41.17-97.79h25.71l41.17,97.79H201.52Zm-28.38-69.41-21.08,53.67h42Z"></path><path class="a" d="M309.59,416.44V434H270.24v80.23h-19V434H211.93V416.44Z"></path><path class="a" d="M341.52,514.23h-19V416.44h19Z"></path><path class="a" d="M451,514.23H425.33l-51.57-77.28v77.28h-19V416.44h27.12l50.16,75.17V416.44h19Z"></path><path class="b" d="M104.2,473.34v22.34a17.84,17.84,0,0,1-5.34,13,17.33,17.33,0,0,1-12.79,5.41l-67.16.14a17.44,17.44,0,0,1-14.05-6.6A18.47,18.47,0,0,1,.65,495.4v-5.62a.25.25,0,0,1,.28-.28l16.86-.14a.25.25,0,0,1,.28.28v.84a5.91,5.91,0,0,0,5.9,6.18l56.9-.14a5.6,5.6,0,0,0,4.64-2.39,6.28,6.28,0,0,0,1.12-3.79V476.57a3.21,3.21,0,0,0-.91-2.25,3,3,0,0,0-2.32-1H16.66a15.42,15.42,0,0,1-11.31-4.71A15.42,15.42,0,0,1,.65,457.32V434.84a17.84,17.84,0,0,1,5.34-13,17.5,17.5,0,0,1,12.93-5.41h67a17.5,17.5,0,0,1,12.93,5.41,17.84,17.84,0,0,1,5.34,13V441a.25.25,0,0,1-.28.28h-17a.25.25,0,0,1-.28-.28v-.84a5.84,5.84,0,0,0-1.76-4.29,6,6,0,0,0-4.43-1.76H24.25a6.07,6.07,0,0,0-4.36,1.76,5.72,5.72,0,0,0-1.83,4.29v13.91a3,3,0,0,0,1,2.32,3.2,3.2,0,0,0,2.25.91H88.18a16.07,16.07,0,0,1,16,16Z"></path><path class="b" d="M194.22,498.07h-56.9l-7.17,16.16H111.74l41.17-97.79h25.71l41.17,97.79H201.52Zm-28.38-69.41-21.08,53.67h42Z"></path><path class="b" d="M309.59,416.44V434H270.24v80.23h-19V434H211.93V416.44Z"></path><path class="b" d="M341.52,514.23h-19V416.44h19Z"></path><path class="b" d="M451,514.23H425.33l-51.57-77.28v77.28h-19V416.44h27.12l50.16,75.17V416.44h19Z"></path><polygon class="b" points="230.49 356.11 210.67 326.39 195 326.39 195 375.49 207.9 394.8 207.9 344.81 228.37 375.49 243.39 375.49 243.39 326.39 230.49 307.07 230.49 356.11"></polygon></svg>