<svg xmlns="http://www.w3.org/2000/svg" viewBox="0 0 448.41 120.9"><defs><style>.a{fill:#fff;}</style></defs><title>GSWF - WHITE - Logo</title><path class="a" d="M155.61,89.2h-47.7v31.3h4.2s28.3.1,42.4-.3a37.68,37.68,0,0,0,36.7-35.1c1.4-19.8-11.6-35.5-32.2-38.7-5.1-.8-10.3-1.4-16.7-2.3-9.4-1.6-8.5-10.6-1.6-11.1h47.6C199,21.8,208.61,12,219.41.6H64.91C44.21.7,27,9,14.11,24.8c-15.2,18.4-18.3,39.4-8.4,61.3s26.9,33.8,51.3,34.2c8.1.1,24.2.2,24.2.2h18.1V46.7H70.51V67.8s-.2,13.4-.2,20.1c-11.8,1.7-21.7,1.9-29.5-6.6-12.3-13.3-9.5-35.1,6.5-43.7,5.7-3.1,13-4.3,19.6-4.8,11.2-.8,22.6-.2,33.3-.2l12.1-10.7c0,2.4-1.5,4.6-1.7,5.4-7.1,25.6,12.2,48.6,37.2,49.3a55.79,55.79,0,0,1,9,1.3C162.21,79.6,164.11,87.8,155.61,89.2Z"></path><polygon class="a" points="198.71 32.9 198.6 120.7 247.5 70.3 247.5 120.9 366.7 0.8 329.2 0.8 278.81 50.3 278.81 0 253.81 25.5 228.1 50.9 228.1 0.5 198.71 32.9"></polygon><polygon class="a" points="343.2 120.7 376 120.7 376 76 416.61 76 416.61 45.1 376.2 45.1 376.2 32.5 416.61 32.5 448.4 1 375.2 1 343.2 33.8 343.2 120.7"></polygon></svg>