<svg xmlns="http://www.w3.org/2000/svg" viewBox="0 0 482.19 124.78"><defs><style>.a,.b,.c{fill:#fff;}.b{stroke:#0074e8;stroke-miterlimit:10;stroke-width:0.02px;}.b,.c{fill-rule:evenodd;}</style></defs><title>ICONS - certification</title><path class="a" d="M93.35,60.06a32.67,32.67,0,1,1-9.64-23.17l-23,23.17L50.5,49.82l-.17,15.6,10.2,10.11L90.17,46A32.55,32.55,0,0,1,93.35,60.06Zm34.27,60.6H64.86v-.87h62.76Z"></path><path class="a" d="M120.62,124.78h-.77V95h.77Z"></path><path class="a" d="M101.17,22.59a.93.93,0,0,0-.22-.93.9.9,0,0,0-.91-.23,3.31,3.31,0,0,0-1.39.92h0a3.31,3.31,0,0,0-1,1.35.93.93,0,0,0,1.13,1.18,3.67,3.67,0,0,0,1.46-1A3,3,0,0,0,101.17,22.59Z"></path><path class="a" d="M119.11,111.2a6.46,6.46,0,0,0-3.68-3,18.79,18.79,0,0,1-3.61-2.41,2.7,2.7,0,0,1-.52-1.65,3,3,0,0,1,.48-1.5,2.24,2.24,0,0,1,1.43-.65c.61,0,1.45,0,1.82.61a7.78,7.78,0,0,1,.48,2.45l4.11,0c0-2.18-.13-3.53-1.06-4.48a7.93,7.93,0,0,0-4.92-1.72,8.79,8.79,0,0,0-4,.78,6.06,6.06,0,0,0-2.05,1.95,6.27,6.27,0,0,0-.71,3.2,4.86,4.86,0,0,0,1.8,3.95c.38.23,4.62,3,4.63,3a5.9,5.9,0,0,1,1.64,1.33,2,2,0,0,1,.67,1.29,2.91,2.91,0,0,1-.39,1.83,2.06,2.06,0,0,1-1.5.82c-.82,0-2-.11-2.45-.92a10.25,10.25,0,0,1-.32-2.68l-4.47,0h0c.14,2.48-.37,3.33,1.22,5.09,1.21,1.33,3.61,1.18,6,1.18a6.12,6.12,0,0,0,3.32-.55,4.35,4.35,0,0,0,2.25-2.06,8.86,8.86,0,0,0,.44-3.64A4.53,4.53,0,0,0,119.11,111.2Z"></path><polygon class="a" points="87.98 15.06 88.87 12.46 86.98 14.46 87.98 15.06"></polygon><path class="a" d="M59.88,0A59.89,59.89,0,0,0,0,58.66H12A48,48,0,0,1,107.9,59.9c0,1.54,0,30.25,0,30.25h12c0-.06-.06-29.79-.06-30.25A59.9,59.9,0,0,0,59.88,0ZM21,27.73a2.4,2.4,0,0,1-.54,1.2,2.16,2.16,0,0,1-1.74,1,3.54,3.54,0,0,1-1.84-.69h0l.86-1.32a2.16,2.16,0,0,0,.77.34.79.79,0,0,0,.8-.29.66.66,0,0,0,.15-.57.85.85,0,0,0-.83-.66,1.79,1.79,0,0,0-.86.39,3.18,3.18,0,0,1-1.67.65,2.21,2.21,0,0,1-1.42-.53,2.55,2.55,0,0,1-.71-.86,1.84,1.84,0,0,1-.19-1.06,2.5,2.5,0,0,1,.58-1.21,2.11,2.11,0,0,1,1.38-.89,2.67,2.67,0,0,1,1.73.55l-.86,1.3a1.4,1.4,0,0,0-.74-.25.68.68,0,0,0-.52.29.53.53,0,0,0-.13.45.62.62,0,0,0,.24.37.49.49,0,0,0,.33.11,1.13,1.13,0,0,0,.56-.26,5.59,5.59,0,0,1,1.48-.8,2,2,0,0,1,1.07,0,2.8,2.8,0,0,1,1,.52,3.11,3.11,0,0,1,.87,1A2.08,2.08,0,0,1,21,27.73Zm2.29-2.29L21,23.25l-4.56-1.56,1.28-1.31,2.54,1-1-2.52,1.27-1.3,1.67,4.52,2.24,2.19Zm5.42-5.2a2.4,2.4,0,0,1-.79,1.06,2.15,2.15,0,0,1-1.92.63,3.55,3.55,0,0,1-1.65-1.07h0l1.12-1.11a2.16,2.16,0,0,0,.68.5.79.79,0,0,0,.85-.11.65.65,0,0,0,.27-.52.85.85,0,0,0-.67-.82,1.79,1.79,0,0,0-.93.2,3.16,3.16,0,0,1-1.77.28,2.2,2.2,0,0,1-1.28-.82,2.56,2.56,0,0,1-.51-1,1.83,1.83,0,0,1,0-1.08A2.49,2.49,0,0,1,23,15.34a2.11,2.11,0,0,1,1.54-.58,2.67,2.67,0,0,1,1.57.91L25,16.75a1.4,1.4,0,0,0-.67-.4.68.68,0,0,0-.57.17.53.53,0,0,0-.22.41.63.63,0,0,0,.15.41.5.5,0,0,0,.3.17,1.13,1.13,0,0,0,.6-.14,5.57,5.57,0,0,1,1.61-.47,2,2,0,0,1,1.05.21,2.79,2.79,0,0,1,.87.72,3.11,3.11,0,0,1,.63,1.2A2.08,2.08,0,0,1,28.71,20.24Zm2.55-1.63-3.12-4.69-1.4.93-1-1.54h0l4.16-2.77,1,1.54L29.5,13l3.12,4.69Zm3.24-2.1L31,9.88h0l3.91-2.05.74,1.42-2.45,1.29.55,1.05L36,10.4l.71,1.35-2.27,1.19.68,1.3,2.52-1.32.79,1.5Zm8.87-4-2-5.34,1.06,5.71-1.14.43-3-5,2,5.34L39,14.13l-2.66-7,2-.77,2.39,4-.84-4.55L42,5l2.66,7ZM52,9.32a2.27,2.27,0,0,1-.6,1,2.18,2.18,0,0,1-1.1.51,2.58,2.58,0,0,1-1.46-.08,2.78,2.78,0,0,1-1.17-1,5.64,5.64,0,0,1-.83-2.17A4.93,4.93,0,0,1,47,4.59a2.29,2.29,0,0,1,1.76-1.36,2.14,2.14,0,0,1,1.66.26,3.6,3.6,0,0,1,1.17,1.56l-1.34.72A2.12,2.12,0,0,0,50,5.32,1.12,1.12,0,0,0,49.56,5a.75.75,0,0,0-.47-.06.93.93,0,0,0-.72.78,3.61,3.61,0,0,0,.06,1.49A3.73,3.73,0,0,0,49,8.83a.84.84,0,0,0,.83.31.8.8,0,0,0,.63-.5,2.82,2.82,0,0,0,.14-1.13h0l1.53.33A4.54,4.54,0,0,1,52,9.32Zm1.24.86-.62-7.46L57,2.36,57.12,4l-2.76.23.1,1.18L57,5.16l.13,1.52-2.55.21.12,1.47,2.83-.24.14,1.69Zm8.54-.32-.82-2.31A1.82,1.82,0,0,0,60.64,7a.55.55,0,0,0-.4-.18H60.1l-.07,3-1.66,0h0l.17-7.48,2.74.06a2.9,2.9,0,0,1,1.16.21,1.38,1.38,0,0,1,.63.7,2.72,2.72,0,0,1,.22,1.22,2.79,2.79,0,0,1-.21,1.07,1.91,1.91,0,0,1-.53.72,1.68,1.68,0,0,1-.58.28,1.51,1.51,0,0,1,.42.29,2.21,2.21,0,0,1,.25.4,3.21,3.21,0,0,1,.22.47l.75,2.19Zm5.11.49-1.63-.21.72-5.59-1.67-.21.24-1.84h0l5,.64L69.24,5l-1.67-.21Zm2.29.39,1.53-7.33,1.61.34-1.53,7.33Zm5.08-1.94-.85,2.94-1.59-.46L73.86,4.1h0l3.91,1.12-.45,1.55L75,6.11l-.36,1.25,2,.57-.42,1.46Zm2.22,3.9,2.59-7,1.54.57-2.59,7Zm6,2.34a2.18,2.18,0,0,1-1.19-.23,2.57,2.57,0,0,1-1.14-.92,2.79,2.79,0,0,1-.34-1.53,5.62,5.62,0,0,1,.6-2.24,4.93,4.93,0,0,1,1.84-2.3,2.29,2.29,0,0,1,2.22-.07,2.14,2.14,0,0,1,1.19,1.18,3.6,3.6,0,0,1,0,2l-1.5-.2a2.07,2.07,0,0,0,.06-.52,1.11,1.11,0,0,0-.14-.51.76.76,0,0,0-.35-.32.93.93,0,0,0-1,.21,3.62,3.62,0,0,0-.83,1.25,3.76,3.76,0,0,0-.47,1.66.84.84,0,0,0,.49.74.8.8,0,0,0,.81,0,2.86,2.86,0,0,0,.78-.84l1,1.16a4.56,4.56,0,0,1-1,1.1A2.28,2.28,0,0,1,82.43,15.05ZM87,17.82l.4-1.19-1.6-1-.86.92-1.44-.86,5.57-5.39,1.55.93-2.14,7.44Zm2.78,1.89,3.38-4.51-1.34-1L93,12.72h0l4,3L95.85,17.2l-1.34-1L91.13,20.7Zm3.13,2.45,4.93-5.63,1.24,1.08-4.93,5.63Zm5.11,4.44a2.32,2.32,0,0,1-1.36-.74,2.59,2.59,0,0,1-.74-1.35,2.81,2.81,0,0,1,.26-1.57,5.67,5.67,0,0,1,1.32-1.78,4.87,4.87,0,0,1,2.56-1.46,2.34,2.34,0,0,1,2.14.75,2.37,2.37,0,0,1,.7,2.17,4.77,4.77,0,0,1-1.53,2.47,6.26,6.26,0,0,1-1.77,1.27A2.91,2.91,0,0,1,98.05,26.61Zm4.13,5.68-.94-1.23L103.3,27,100,29.47l-.94-1.23,6-4.54h0l.93,1.22L103.89,29l3.29-2.51.94,1.23Z"></path><rect class="a" x="119.84" y="90.14"></rect><path class="a" d="M98.78,112.16h2.44v4.73c-.6.1-.38,0-1,.13a6.84,6.84,0,0,1-1.36.1c-1,0-1.57.21-2.63-1.59-.55-.93-.54-4.05-.54-6.21s.28-5.3.84-6.24a2.28,2.28,0,0,1,2.24-1.21,2.24,2.24,0,0,1,2.14,1.2c.19.73.1,1.58.27,2.34h3.9a7.73,7.73,0,0,0-.53-3.88,5.81,5.81,0,0,0-2.28-1.86,7.41,7.41,0,0,0-3.42-.7,7.32,7.32,0,0,0-3.77.77A6,6,0,0,0,92.36,103a19.91,19.91,0,0,0-.93,6.37,24.36,24.36,0,0,0,.85,6.68,5.91,5.91,0,0,0,2.4,3c1,.81,2.36.62,4,.62,1.33,0,2.09,0,3.44,0,1.07,0,.64,0,3.24-.06V109H98.78Z"></path><path class="a" d="M60.88,3.88l-.71,0,0,1.51.68,0a1.83,1.83,0,0,0,.43-.09.44.44,0,0,0,.27-.23.89.89,0,0,0,.11-.43.85.85,0,0,0-.15-.56A.76.76,0,0,0,60.88,3.88Z"></path><path class="a" d="M89.86,111.2a6.47,6.47,0,0,0-3.68-3,18.76,18.76,0,0,1-3.61-2.41,2.7,2.7,0,0,1-.51-1.65,3,3,0,0,1,.48-1.5A2.23,2.23,0,0,1,84,102c.61,0,1.45,0,1.82.61a7.82,7.82,0,0,1,.48,2.45l4.11,0c0-2.18-.14-3.53-1.06-4.48a7.94,7.94,0,0,0-4.92-1.72,8.78,8.78,0,0,0-4,.78,6,6,0,0,0-2.05,1.95,6.26,6.26,0,0,0-.71,3.2,4.85,4.85,0,0,0,1.8,3.95c.39.24,4.84,3.18,4.62,3a5.93,5.93,0,0,1,1.65,1.33,2,2,0,0,1,.67,1.29,2.92,2.92,0,0,1-.4,1.83,2.06,2.06,0,0,1-1.5.82c-.82,0-2-.11-2.45-.92a10.13,10.13,0,0,1-.32-2.68l-4.47,0h0c.14,2.48-.37,3.33,1.22,5.09,1.21,1.33,3.61,1.18,6,1.18a6.12,6.12,0,0,0,3.32-.55A4.34,4.34,0,0,0,90,117.1a8.86,8.86,0,0,0,.44-3.64A4.53,4.53,0,0,0,89.86,111.2Z"></path><path class="a" d="M11.8,61.92,12,64.51.62,65.26.45,62.67ZM4.42,66.64,5.08,69a3.1,3.1,0,0,0-1.15.55,1.27,1.27,0,0,0-.46,1.26,1.07,1.07,0,0,0,.51.78,1.23,1.23,0,0,0,.86.14,1.2,1.2,0,0,0,.72-.43A2.93,2.93,0,0,0,6,69.88a5,5,0,0,1,.9-2.65,3.26,3.26,0,0,1,2-1.13,3.79,3.79,0,0,1,1.7.06A2.81,2.81,0,0,1,12,67,4,4,0,0,1,12.81,69a3.41,3.41,0,0,1-.34,2.56A4,4,0,0,1,10.13,73l-.64-2.36a2,2,0,0,0,1-.61,1.1,1.1,0,0,0,.18-.91.86.86,0,0,0-.38-.62.92.92,0,0,0-.66-.11.72.72,0,0,0-.44.28,1.83,1.83,0,0,0-.25.93,8.93,8.93,0,0,1-.54,2.58,3,3,0,0,1-1,1.29,4.11,4.11,0,0,1-1.59.64,4.59,4.59,0,0,1-2.07-.06,3.21,3.21,0,0,1-1.61-1,3.9,3.9,0,0,1-.84-1.89,3.46,3.46,0,0,1,.55-3.12,5.24,5.24,0,0,1,2.62-1.44ZM8,74.8a7.2,7.2,0,0,1,4.46-.45A3.73,3.73,0,0,1,15,76.79a3.77,3.77,0,0,1-.3,3.55,7.06,7.06,0,0,1-3.61,2.55,9.16,9.16,0,0,1-3.24.68,4.44,4.44,0,0,1-2.36-.64A3.73,3.73,0,0,1,4,81a4.16,4.16,0,0,1-.25-2.41A4.28,4.28,0,0,1,5.05,76.5,8.33,8.33,0,0,1,8,74.8Zm.9,2.43a4.89,4.89,0,0,0-2.15,1.31,1.47,1.47,0,0,0,.88,2.41,5.43,5.43,0,0,0,2.64-.5,4.48,4.48,0,0,0,2-1.27,1.46,1.46,0,0,0,.24-1.47,1.42,1.42,0,0,0-1.14-.91,4.91,4.91,0,0,0-2.5.43ZM10.77,89l1.61,1.7a2,2,0,0,0-.6.77.65.65,0,0,0,.07.59q.31.46,1.12.29a9.53,9.53,0,0,0,2.19-1.06A3.14,3.14,0,0,1,14,91.1a1.88,1.88,0,0,1-.79-.69A2.27,2.27,0,0,1,13,88.23a4.62,4.62,0,0,1,1.85-2.17,5.25,5.25,0,0,1,1.93-.82,3.14,3.14,0,0,1,1.77.12A3,3,0,0,1,20,86.53a3.2,3.2,0,0,1,.63,2,4,4,0,0,1-.87,2,10.31,10.31,0,0,1-2.55,2.25,8.33,8.33,0,0,1-4.28,1.72,3,3,0,0,1-2.66-1.39,3.32,3.32,0,0,1-.62-1.48,2.6,2.6,0,0,1,.23-1.31A4.81,4.81,0,0,1,10.77,89Zm6.61.71a2.63,2.63,0,0,0,1-1.09,1,1,0,0,0,0-1,.9.9,0,0,0-.82-.37,2.66,2.66,0,0,0-1.35.54,2.76,2.76,0,0,0-1,1.08.92.92,0,0,0,0,.94,1,1,0,0,0,.86.4,2.51,2.51,0,0,0,1.34-.51Zm.41,3.9a8.69,8.69,0,0,1,3.94-2.41,2.92,2.92,0,0,1,2.72,1.07,3,3,0,0,1,.72,1.22,2.6,2.6,0,0,1,0,1.15,4,4,0,0,1-.34,1,6.23,6.23,0,0,1-.65,1,14.67,14.67,0,0,1-1.81,2,10,10,0,0,1-3.88,2.47,2.76,2.76,0,0,1-2.85-1,2.91,2.91,0,0,1-.81-1.57,3.33,3.33,0,0,1,.28-1.69,6.23,6.23,0,0,1,1-1.5,15.78,15.78,0,0,1,1.67-1.74Zm1.55,1.71a10.33,10.33,0,0,0-2,2.21q-.4.74,0,1.14a.76.76,0,0,0,.66.23,2.45,2.45,0,0,0,1-.43,15.14,15.14,0,0,0,1.77-1.44,10.65,10.65,0,0,0,2.07-2.26q.39-.73,0-1.15t-1.15-.08A11.21,11.21,0,0,0,19.33,95.36Zm3.78,4.05a8.69,8.69,0,0,1,3.54-3,2.93,2.93,0,0,1,2.85.66,3,3,0,0,1,.89,1.1,2.6,2.6,0,0,1,.22,1.13,4,4,0,0,1-.19,1.08,6.16,6.16,0,0,1-.5,1.1,14.66,14.66,0,0,1-1.5,2.2,10,10,0,0,1-3.47,3,2.76,2.76,0,0,1-3-.57,2.91,2.91,0,0,1-1-1.44A3.32,3.32,0,0,1,21,103a6.27,6.27,0,0,1,.73-1.63A15.81,15.81,0,0,1,23.11,99.42Zm1.78,1.47a10.3,10.3,0,0,0-1.67,2.48q-.29.8.13,1.14a.76.76,0,0,0,.69.13,2.45,2.45,0,0,0,1-.58,15.18,15.18,0,0,0,1.54-1.68,10.64,10.64,0,0,0,1.72-2.54q.28-.78-.16-1.14T27,98.77a11.13,11.13,0,0,0-2.07,2.12ZM36.75,102l-6,9.92-2-1.21,3.89-6.49a7.29,7.29,0,0,1-1.43.24,7.45,7.45,0,0,1-1.5-.09l1.32-2.21a4.77,4.77,0,0,0,4-1.16l1.65,1Zm-1.69,8.57,2.26,1L36,114.53l-2.25-1ZM37.2,106l2.25,1-1.32,2.87-2.26-1ZM44,117.47l-6.63-2.24A7.36,7.36,0,0,1,38.94,113a12.09,12.09,0,0,1,3.1-2,8.33,8.33,0,0,0,1.75-1.07,2.15,2.15,0,0,0,.6-.87,1.42,1.42,0,0,0,0-.93.89.89,0,0,0-1.38-.45,2.81,2.81,0,0,0-.79,1.15l-2.13-1a6.32,6.32,0,0,1,1.14-1.81,2.66,2.66,0,0,1,1.34-.76,3.6,3.6,0,0,1,1.87.21,4,4,0,0,1,1.69,1,2.64,2.64,0,0,1,.64,1.45,3.91,3.91,0,0,1-.19,1.8,4.59,4.59,0,0,1-1.06,1.74,7.53,7.53,0,0,1-2.21,1.45q-.88.4-1.19.58t-.75.48L44.86,115,44,117.47Zm2.8-5.18A8.69,8.69,0,0,1,48.5,108a2.93,2.93,0,0,1,2.81-.8,3,3,0,0,1,1.31.53,2.6,2.6,0,0,1,.74.89,4,4,0,0,1,.36,1,6.16,6.16,0,0,1,.1,1.21,14.75,14.75,0,0,1-.25,2.65A10,10,0,0,1,52,117.8a2.76,2.76,0,0,1-2.87.93,2.91,2.91,0,0,1-1.6-.76,3.31,3.31,0,0,1-.81-1.51,6.25,6.25,0,0,1-.15-1.78A15.74,15.74,0,0,1,46.84,112.29Zm2.27.42a10.29,10.29,0,0,0-.26,3q.14.83.66.93a.76.76,0,0,0,.66-.22,2.45,2.45,0,0,0,.57-1,15.15,15.15,0,0,0,.53-2.22,10.62,10.62,0,0,0,.27-3.05q-.14-.82-.69-.92t-1,.63A11.22,11.22,0,0,0,49.11,112.71Zm5.43.92a8.69,8.69,0,0,1,1-4.51,2.93,2.93,0,0,1,2.66-1.2,3,3,0,0,1,1.38.33,2.6,2.6,0,0,1,.86.77,4,4,0,0,1,.51,1,6.2,6.2,0,0,1,.28,1.18,14.66,14.66,0,0,1,.14,2.66,10,10,0,0,1-.93,4.5,2.76,2.76,0,0,1-2.7,1.34,2.91,2.91,0,0,1-1.69-.52,3.32,3.32,0,0,1-1-1.38,6.25,6.25,0,0,1-.41-1.73,15.86,15.86,0,0,1-.08-2.42Zm2.31.08a10.32,10.32,0,0,0,.18,3q.25.81.79.82a.76.76,0,0,0,.63-.32,2.45,2.45,0,0,0,.42-1.06,15.12,15.12,0,0,0,.2-2.27,10.63,10.63,0,0,0-.18-3.06q-.26-.79-.82-.81t-.86.77a11.2,11.2,0,0,0-.36,2.94Zm5.51.12a8.7,8.7,0,0,1,.35-4.61,2.93,2.93,0,0,1,2.46-1.58,3,3,0,0,1,1.41.13,2.57,2.57,0,0,1,1,.63,4.08,4.08,0,0,1,.64.89,6.21,6.21,0,0,1,.45,1.13,14.63,14.63,0,0,1,.53,2.61,10.06,10.06,0,0,1-.26,4.59,2.76,2.76,0,0,1-2.48,1.72,2.92,2.92,0,0,1-1.75-.27,3.33,3.33,0,0,1-1.21-1.22,6.25,6.25,0,0,1-.66-1.66A15.89,15.89,0,0,1,62.36,113.83Zm2.3-.25a10.38,10.38,0,0,0,.61,2.92c.25.51.55.74.9.7a.76.76,0,0,0,.57-.41,2.46,2.46,0,0,0,.26-1.11,15.33,15.33,0,0,0-.13-2.28,10.66,10.66,0,0,0-.62-3c-.24-.5-.56-.72-.93-.68s-.63.34-.74.89a11.19,11.19,0,0,0,.07,3Z"></path><path class="b" d="M258,19.75c39,0,70.85,20.7,70.85,46.07S297,111.89,258,111.89s-70.85-20.7-70.85-46.07S219,19.75,258,19.75ZM207.1,49.23,201,45.91l-.41.49,2.59,4.06-4.47-1.82-.41.49,4.34,5.44.75-.89L201,50.74l3.77,1.37.28-.33-2-3.47,3.27,1.82.75-.9Zm-1.65-5.77L208,41.57l-.65-.86-3.48,2.62,4.1,5.45,3.44-2.59-.65-.86-2.47,1.86L207,45.56l1.8-1.36-.62-.82-1.8,1.36-1-1.28ZM218,42.26,213.51,37l-.56.31,1,4.72-3.52-3.3-.56.31,2.11,6.64,1-.57-1.14-3.57,3,2.63.38-.21-.63-4,2.4,2.87,1-.57ZM220.77,41a2.88,2.88,0,0,0,1.46-1.21,1.79,1.79,0,0,0,.07-1.63,1.77,1.77,0,0,0-1.88-1.18,1.43,1.43,0,0,0,.29-1.51,1.52,1.52,0,0,0-1.06-1,2.68,2.68,0,0,0-1.71.23q-.51.22-1.75.81l2.66,6.27,1.92-.81Zm-3.09-5,.64,1.51.55-.21q1.09-.46.74-1.28t-1.3-.3l-.63.29Zm1,2.37.88,2.07.56-.2a2,2,0,0,0,1-.71,1.07,1.07,0,0,0,0-1,1,1,0,0,0-.64-.65,2,2,0,0,0-1.2.22l-.56.25Zm4.75-4.68,3-1-.35-1L221.94,33l2.22,6.45,4.07-1.4-.35-1L225,38l-.66-1.93,2.13-.73-.33-1-2.13.73-.52-1.51Zm9.79,3.07,1.35-.36-2.74-2.45a1.94,1.94,0,0,0,.69-.91,1.85,1.85,0,0,0,.06-1.16q-.52-1.94-3-1.27l-1.06.32-.75.24,1.77,6.59,1.21-.33L230,34.6l.75-.17,2.49,2.25Zm-4-4.9.49,1.83.5-.11a2.2,2.2,0,0,0,1-.49.89.89,0,0,0,.12-.9.72.72,0,0,0-.55-.58,2.64,2.64,0,0,0-1.2.11,2.87,2.87,0,0,0-.39.13Zm7.4.5a4.23,4.23,0,0,0,1.18,2.46,2.49,2.49,0,0,0,2.24.58,2.85,2.85,0,0,0,2.1-1.35,3.94,3.94,0,0,0,.35-2.72,3.83,3.83,0,0,0-1.21-2.39,2.79,2.79,0,0,0-2.37-.51A2.58,2.58,0,0,0,237,29.71a3.85,3.85,0,0,0-.36,2.57Zm1.24-.22a3.55,3.55,0,0,0,.72,1.75,1.3,1.3,0,0,0,1.27.44,1.62,1.62,0,0,0,1.25-.87,3.1,3.1,0,0,0,.15-1.92q-.42-2.36-2.16-2.05a1.4,1.4,0,0,0-1.11.85,3.12,3.12,0,0,0-.12,1.8Zm7.2-3.43,3.27-.29-.09-1.07-4.48.39.6,6.79,1.21-.11-.27-3.11,2.39-.21-.09-1-2.39.21-.14-1.59Zm13.71,5-1.39-6.82h-.64l-1.44,4.6-1.48-4.6h-.64l-1.37,6.82H253l.74-3.68,1.37,3.77h.43L256.9,30l.71,3.68Zm1.18-6.8-.16,4.68a2.14,2.14,0,0,0,.58,1.69,2.65,2.65,0,0,0,1.81.65,2.83,2.83,0,0,0,1.9-.53,2,2,0,0,0,.76-1.62L265,27l-1.21,0-.16,4.6a1.19,1.19,0,0,1-.4.91,1.44,1.44,0,0,1-1,.3A1.17,1.17,0,0,1,261,31.53l.16-4.62-1.21,0ZM266.37,34l4.28.37.09-1.07L267.67,33l.5-5.72L267,27.21l-.6,6.79Zm8.3-4.89,2.24.32.15-1.07-5.59-.79-.15,1.07,2.15.3-.8,5.69,1.2.17.8-5.69Zm2.4,6.28,1.19.21,1.18-6.72-1.19-.21-1.18,6.72Zm2.72.51,4.18,1,.24-1-3-.69,1.29-5.6-1.18-.27-1.53,6.65ZM289,38.46l1.28.39-.6-7.41-.51-.15-4.62,5.82,1.29.39.86-1.18,2.24.68.07,1.47Zm-.18-5.1-1.52,2.17,1.57.48,0-2.65Zm6.06,1.15,2.12.81.39-1-5.27-2-.39,1,2,.78-2.06,5.36,1.13.43,2.06-5.36Zm4.65,2.06,2.8,1.43.49-1-3.88-2-3.1,6.08,3.83,2,.49-1-2.75-1.4.93-1.82,2,1,.47-.92-2-1,.72-1.42Zm4.59,9.23,1.18.74-.08-3.67a1.94,1.94,0,0,0,1.14-.12,1.83,1.83,0,0,0,.89-.75q1.07-1.71-1.14-3.08-.36-.22-1-.56l-.69-.39-3.61,5.78,1.06.67L303.39,42l.63.44.05,3.35Zm.86-6.26-1,1.61.42.3a2.2,2.2,0,0,0,1.06.41.9.9,0,0,0,.74-.52.73.73,0,0,0,.05-.8,2.64,2.64,0,0,0-.9-.8,3.23,3.23,0,0,0-.36-.19Zm3.93,10,1,.86,2.34-7.06-.41-.34-6.53,3.55,1,.86,1.25-.75,1.79,1.5-.51,1.38Zm1.82-4.77-2.25,1.4,1.26,1.05,1-2.46Zm-.16,6.4,2.76,3.29.82-.69-2-2.36,4.4-3.69-.78-.93-5.22,4.38ZM197.2,78.55l.63,1.24,1.82-3.19a1.92,1.92,0,0,0,1,.49,1.84,1.84,0,0,0,1.15-.18q1.79-.91.61-3.23c-.13-.25-.3-.57-.53-1l-.39-.69-6.08,3.1.57,1.12L198.56,75c.13.3.24.54.32.7l-1.68,2.9Zm4-4.93-1.69.86c.09.21.15.37.21.47a2.21,2.21,0,0,0,.69.89.9.9,0,0,0,.9-.06.72.72,0,0,0,.45-.66,2.66,2.66,0,0,0-.36-1.15,3,3,0,0,0-.21-.35Zm2.71,4.76,1.89,2.51.86-.65L204,76.77l-5.45,4.1,2.59,3.43.86-.65-1.86-2.47L201.77,80l1.36,1.8.82-.62-1.36-1.8,1.27-1Zm6.34,5.74a3.28,3.28,0,0,0-1-1.63,2.83,2.83,0,0,0-2.34-.79A3.73,3.73,0,0,0,204.46,83a3.86,3.86,0,0,0-1.17,2.42,2.75,2.75,0,0,0,1,2.2,2.84,2.84,0,0,0,2.12.9l.25-1.1a1.82,1.82,0,0,1-1.57-.53,1.62,1.62,0,0,1-.55-1.39,2.73,2.73,0,0,1,.81-1.61,2.9,2.9,0,0,1,1.63-1,1.68,1.68,0,0,1,1.51.43,1.79,1.79,0,0,1,.68,1.18l1-.39Zm-1.09,2.94a4.23,4.23,0,0,0-1,2.52,2.49,2.49,0,0,0,1.07,2.05,2.85,2.85,0,0,0,2.41.66,3.94,3.94,0,0,0,2.25-1.56,3.83,3.83,0,0,0,1-2.5,2.79,2.79,0,0,0-1.21-2.1,2.58,2.58,0,0,0-2.3-.52,3.85,3.85,0,0,0-2.15,1.45Zm1,.77a3.55,3.55,0,0,0-.82,1.71,1.3,1.3,0,0,0,.52,1.24,1.62,1.62,0,0,0,1.49.35A3.11,3.11,0,0,0,212.83,90q1.48-1.89.08-3a1.4,1.4,0,0,0-1.38-.25,3.11,3.11,0,0,0-1.42,1.11Zm10.75,3.46a2.84,2.84,0,0,0-1.32-1.53,3.31,3.31,0,0,0-2.68-.41,3.58,3.58,0,0,0-2.09,1.75,3.68,3.68,0,0,0-.53,2.63,3,3,0,0,0,1.53,2,4.86,4.86,0,0,0,1.27.51,3.14,3.14,0,0,0,1.24.08l1.53-2.64L218,92.6l-.52.89.82.47-.67,1.16a1.59,1.59,0,0,1-1.1-.23,2,2,0,0,1-1-1.34,2.54,2.54,0,0,1,.38-1.79,2.71,2.71,0,0,1,1.42-1.29,2,2,0,0,1,1.72.2,2.05,2.05,0,0,1,.57.55,2.43,2.43,0,0,1,.38.66l.93-.59Zm2.83,8.18.45.2L227,93.36l-1.06-.47-1.67,3.76L223,91.58l-.53-.24-2.78,6.23,1.06.47,1.72-3.86,1.27,5.29Zm2.49.81,1.14.39,2.22-6.45-1.14-.39-2.22,6.45Zm7.48-3.57,2.17.66.32-1-5.4-1.65-.31,1,2.08.63-1.68,5.49,1.16.35,1.68-5.49Zm2,6.36,1.18.27,1.53-6.65-1.18-.27-1.53,6.64Zm3.47-2.67a4.24,4.24,0,0,0,.31,2.71,2.49,2.49,0,0,0,1.93,1.27,2.85,2.85,0,0,0,2.43-.59,3.94,3.94,0,0,0,1.21-2.46,3.84,3.84,0,0,0-.37-2.65,2.79,2.79,0,0,0-2.08-1.25,2.58,2.58,0,0,0-2.26.66,3.84,3.84,0,0,0-1.18,2.31Zm1.24.2a3.51,3.51,0,0,0,.11,1.89,1.3,1.3,0,0,0,1.06.83,1.62,1.62,0,0,0,1.47-.42,3.1,3.1,0,0,0,.76-1.77q.37-2.37-1.37-2.64a1.4,1.4,0,0,0-1.33.45,3.1,3.1,0,0,0-.7,1.66Zm10.3,4.86.49,0,.6-6.89-1.16-.1-.36,4.1-2.85-4.38-.58-.05-.6,6.8,1.16.1.37-4.21,2.92,4.59Zm14.11,0,1.33-.09-3.22-6.71-.53,0-2.23,7.09,1.34-.09.38-1.41,2.33-.16.59,1.34Zm-2-4.7-.64,2.57,1.63-.11-1-2.46Zm8.59,4,1.39-.17-2.38-2.8a1.93,1.93,0,0,0,.81-.81,1.84,1.84,0,0,0,.22-1.14q-.25-2-2.82-1.68l-1.09.17-.78.13.83,6.77,1.25-.15-.35-2.83.77-.06,2.15,2.57Zm-3.27-5.41.23,1.88.51,0a2.19,2.19,0,0,0,1.07-.35.89.89,0,0,0,.25-.87.72.72,0,0,0-.46-.65,2.65,2.65,0,0,0-1.2-.05,2.94,2.94,0,0,0-.4.08Zm9.65,4.33,1.37-.27-2.57-2.63a1.93,1.93,0,0,0,.75-.86,1.85,1.85,0,0,0,.14-1.15q-.38-2-2.93-1.48l-1.07.24-.77.18,1.3,6.7,1.24-.24-.54-2.8.76-.11,2.32,2.42Zm-3.64-5.17.36,1.86.51-.07a2.19,2.19,0,0,0,1-.42.89.89,0,0,0,.19-.88.73.73,0,0,0-.51-.62,2.65,2.65,0,0,0-1.2,0l-.4.1Zm10.13,3.59,1.29-.35-4.44-6-.51.14-.84,7.38,1.3-.35.1-1.46,2.26-.6.84,1.21Zm-2.87-4.23-.14,2.65,1.58-.42-1.44-2.22Zm9.79,2,.46-.17-2.37-6.5-1.09.4,1.41,3.87-4.44-2.76-.55.2,2.33,6.41,1.09-.4-1.45-4,4.59,2.92Zm4.34-8.71a2.83,2.83,0,0,0-2,.2,3.31,3.31,0,0,0-1.87,2,3.58,3.58,0,0,0,.24,2.72A3.66,3.66,0,0,0,293.67,98a3,3,0,0,0,2.51-.11,4.87,4.87,0,0,0,1.15-.75,3.14,3.14,0,0,0,.78-1l-1.29-2.77-2,.91.44.94.86-.4.57,1.22a1.6,1.6,0,0,1-.82.77,2,2,0,0,1-1.68.07A2.55,2.55,0,0,1,293,95.57a2.72,2.72,0,0,1-.24-1.9,2,2,0,0,1,1.15-1.29,2,2,0,0,1,.77-.15,2.44,2.44,0,0,1,.76.06l0-1.1Zm2.67-.88,2.72-1.57-.54-.93L296.54,90,300,95.89l3.73-2.15-.54-.93-2.68,1.55-1-1.77,2-1.13-.51-.89-2,1.13-.8-1.38Zm12.13-1.37L305,84.33l-.51.38,1.61,4.54-3.94-2.78-.51.39,3,6.28.93-.7L304,89.05l3.36,2.18.35-.26-1.17-3.83,2.78,2.51.94-.71ZM308,83.11l2.14-2.3-.79-.73-3,3.18,5,4.65,2.93-3.15-.79-.73-2.11,2.26-1.5-1.39,1.54-1.65-.75-.7-1.54,1.65L308,83.11Zm10.18-3.21.28-.41-5.73-3.87-.65,1,3.41,2.3-5.21.37-.33.48,5.66,3.82.65-1-3.5-2.36,5.43-.33Zm-3-7.12.88-2.09-1-.42-2.21,5.2,1,.42.85-2L320,76.14l.47-1.11-5.29-2.24ZM258,36.75h0c-15.08,0-28.78,3.24-38.72,8.46s-16.23,12.56-16.23,20.62h0c0,8.06,6.21,15.35,16.23,20.62S242.93,94.9,258,94.9h0c15.08,0,28.78-3.24,38.72-8.46S313,73.88,313,65.82h0c0-8.06-6.21-15.35-16.23-20.62S273.09,36.75,258,36.75Zm-8.59,32.94h2.7q0-1.74-.05-3.54h-1l-1.69,3.54Zm3.23,0h5.1V67.2l-.47-1H252.6q0,1.8.05,3.54Zm5.62,0h.59l-.59-1.32v1.32ZM257,65.63l-2.74-6.15L252.62,63q0,1.3,0,2.64Zm-5-1.5-.72,1.5h.71q0-.75,0-1.5ZM220,50h2a35.56,35.56,0,0,1,5.6-4.6q1.37-.92,2.86-1.75h-5.71q-2.66,1.09-5.05,2.35a43.6,43.6,0,0,0-7.27,4.73H220V50Zm2.74,0h5.64A31.26,31.26,0,0,1,233,45.38q1.14-.93,2.37-1.76h-3.78a42.16,42.16,0,0,0-3.67,2.19A35.31,35.31,0,0,0,222.73,50Zm6.13.22v.51h5.56a29,29,0,0,1,4-5.29q.9-.94,1.87-1.79h-4a34.12,34.12,0,0,0-3,2.17,31,31,0,0,0-4.43,4.39Zm0,1V58.3h2.4a29.46,29.46,0,0,1,2.86-7.08Zm0,7.61v6.8h1.45a30,30,0,0,1,.82-6.8Zm0,7.33v6.39h2.2a30,30,0,0,1-.75-6.39Zm0,6.91v7.08H234a29.51,29.51,0,0,1-2.77-7.08Zm0,7.61v.79a31,31,0,0,0,4.43,4.4q1.22,1,2.57,1.89H240c-.54-.48-1.06-1-1.56-1.51a29,29,0,0,1-4.18-5.57Zm-.47,1h-5.63a35.43,35.43,0,0,0,5.11,4.12q1.5,1,3.15,1.91h3.9q-1-.71-2-1.48a31.39,31.39,0,0,1-4.56-4.54Zm-6.37,0h-2v-1h-7.91a43.1,43.1,0,0,0,7.61,5q2.17,1.14,4.58,2.15v-.08H230c-.81-.47-1.61-1-2.37-1.47A35.48,35.48,0,0,1,222,81.72Zm-2-1.58v-.72a24.2,24.2,0,0,1-3.71-6.36H205.74a24.44,24.44,0,0,0,5.72,7.08Zm0-1.57V73.07h-3.15A23.47,23.47,0,0,0,220,78.57Zm0-6V66.15h-4.56a19.48,19.48,0,0,0,1.21,6.39Zm0-6.91v-6.8h-3.25a19.52,19.52,0,0,0-1.31,6.8Zm0-7.33V53.07a23.58,23.58,0,0,0-3,5.23Zm0-6.08v-1h-8.2a25,25,0,0,0-5.9,7.08h10.49a24.28,24.28,0,0,1,3.6-6.08Zm41.57,23.5h-3.28v4.43h4.39q.09-.77.17-1.57l-1.28-2.86Zm-3.8,0h-4.8c.11,1.54.25,3,.41,4.43h4.39V75.72Zm-5.33,0h-4.84c.23,1.54.51,3,.83,4.43h4.42c-.16-1.41-.3-2.89-.41-4.43Zm-5.37,0h-.51l-2.12,4.43h3.45c-.32-1.41-.6-2.89-.83-4.43Zm-2.88,5-.9,1.89-.57-.1a28.89,28.89,0,0,0,2,3.46q.65,1,1.35,1.83h4.37q-.36-.76-.69-1.59A40.61,40.61,0,0,1,248,80.67Zm-2.11,1.68-6.93-1.22a28.34,28.34,0,0,0,3.67,4.76q.94,1,2,1.87h4.57c-.39-.49-.76-1-1.12-1.54a29.56,29.56,0,0,1-2.17-3.86Zm-7-2.2,3.54-7.08h-6.84a29,29,0,0,0,2.83,7.08Zm3.8-7.61.2-.41a42.17,42.17,0,0,1-.47-6h-7.73a29.42,29.42,0,0,0,.77,6.39Zm.62-1.23L242,66.15h-2.93a42.25,42.25,0,0,0,.36,5.16Zm2.84-5.68,3.4-6.8h-6a41.57,41.57,0,0,0-.58,6.8ZM246,58.3,247,56.18c.25-1.73.56-3.39.93-5H241.8a36.88,36.88,0,0,0-2,7.08Zm1.83-3.67,1.7-3.41h-1c-.26,1.09-.49,2.23-.69,3.41Zm2-3.94.36-.71H253c.21-1.6.45-3.09.72-4.45q.2-1,.42-1.92h-3q-.48,1-.91,2.06a39.62,39.62,0,0,0-1.59,5Zm3.79-.71h3.82l.37.71h0V43.61h-3c-.15.63-.3,1.31-.44,2-.26,1.33-.5,2.78-.71,4.35Zm4.72,1.76,3.38,6.56h1.58c-.14-2.51-.34-4.89-.6-7.08h-4.35v.52Zm3.65,7.08,1.44,2.8q0-1.43-.11-2.8Zm2,3.88,1.51,2.93h3.72c0-2.34-.13-4.62-.35-6.8h-5q.09,1.89.14,3.88Zm1.78,3.45,3.15,6.13c.18-2,.28-4,.29-6.13Zm3.6,7,3.61,7h1.43a37.23,37.23,0,0,0,2-7.08h-7v.07Zm3.88,7.53,0,0-5.45,1a38.85,38.85,0,0,1-1.44,4.41q-.33.83-.69,1.59H270q.71-.87,1.35-1.83a29.94,29.94,0,0,0,2.77-5.25Zm-6,1.18-2.66.5-.75-1.68h-.64c-.24,2-.52,3.81-.85,5.44-.11.57-.23,1.12-.36,1.64H265q.41-.85.78-1.78a38.59,38.59,0,0,0,1.36-4.11Zm-3.65-1.71-.27-.61c0,.21,0,.41-.07.61Zm23-17.72h6.15a23.38,23.38,0,0,0-.83-3.6h-5.32v3.6Zm6.68,0h5.89v3.2h1.46a19.52,19.52,0,0,0-1.32-6.8h-6.84a23.92,23.92,0,0,1,.81,3.6Zm5.89,3.73v2.42h-5.8a23.67,23.67,0,0,1-.81,4h6.86a19.44,19.44,0,0,0,1.21-6.39Zm-6.33,2.42h-6.24v4H292a23.41,23.41,0,0,0,.83-4Zm-6.24,4.5v7.08h1.6a25.67,25.67,0,0,0,3.64-7.08Zm0,7.61v1h-5.44a28.82,28.82,0,0,1-3.54,4.52c-.5.52-1,1-1.56,1.51h4.14q1.34-.89,2.57-1.89a30.46,30.46,0,0,0,5-5.19Zm-6.07,1h-2.81v-1h-3a30.58,30.58,0,0,1-2.9,5.54q-.54.8-1.12,1.54h4.57q1-.89,2-1.87a28.36,28.36,0,0,0,3.29-4.16Zm-2.81-1.58V73.07h-.86a37.88,37.88,0,0,1-1.94,7.08Zm0-7.61V66.15h-.24a42.2,42.2,0,0,1-.53,6.39Zm0-6.91v-6.8h-.81a42.33,42.33,0,0,1,.58,6.8Zm0-7.33V51.22h-2.91a37.41,37.41,0,0,1,2,7.08Zm0-7.61V50h2.84a28.08,28.08,0,0,0-5.63-6.35h-4.46c.46.58.91,1.18,1.34,1.82a30.49,30.49,0,0,1,2.79,5.26Zm3.46-.73H287a31,31,0,0,0-4.25-4.18,33.72,33.72,0,0,0-3-2.17h-4q1,.85,1.87,1.79A28.87,28.87,0,0,1,281.15,50Zm6.5,0h5.63a35.28,35.28,0,0,0-5.15-4.16,42.44,42.44,0,0,0-3.67-2.19h-3.78q1.24.84,2.38,1.76A31.4,31.4,0,0,1,287.66,50ZM294,50h5.62v.73h4A43.54,43.54,0,0,0,296.33,46q-2.38-1.25-5.05-2.35h-5.71c1,.56,1.95,1.14,2.86,1.75A35.51,35.51,0,0,1,294,50Zm5.62,1.26v4.89h-1a22.65,22.65,0,0,1,1,2.19h10.49a25,25,0,0,0-5.9-7.08ZM298,56.11h-6.59q.47,1.08.85,2.19h6.8A21.67,21.67,0,0,0,298,56.11Zm-7.16,0h-4.28V58.3h5.15q-.38-1.11-.87-2.19ZM205.48,72.54h10.59a20,20,0,0,1-1.18-6.39h-11a15.67,15.67,0,0,0,1.56,6.39Zm-1.56-6.91h11a19.93,19.93,0,0,1,1.28-6.8H205.62a15.72,15.72,0,0,0-1.69,6.8Zm22.14-22.54h5.36A51.93,51.93,0,0,1,243.1,38.7a81.57,81.57,0,0,0-17,4.39Zm46.85-4.39a51.88,51.88,0,0,1,11.68,4.39H290a81.55,81.55,0,0,0-17-4.39ZM310.4,58.82H299.84a19.93,19.93,0,0,1,1.28,6.8h11a15.7,15.7,0,0,0-1.69-6.8Zm1.69,7.33h-11a20,20,0,0,1-1.18,6.39h10.59a15.64,15.64,0,0,0,1.56-6.39Zm-1.82,6.91H299.75a24.55,24.55,0,0,1-4.31,7.08h9.11a24.46,24.46,0,0,0,5.72-7.08Zm-6.34,7.61h-9a34.64,34.64,0,0,1-6.55,5.61q-1.14.77-2.37,1.47h5.69v.08q2.4-1,4.58-2.15a43.1,43.1,0,0,0,7.61-5Zm-13.27,7.6h-5.55a51.56,51.56,0,0,1-12.2,4.67,80.88,80.88,0,0,0,17.75-4.67Zm-47.56,4.67a51.58,51.58,0,0,1-12.21-4.67h-5.55a80.88,80.88,0,0,0,17.76,4.67ZM257.75,37.6h-.3c-1,.56-1.85,2.52-2.62,5.48h2.92V37.6ZM257.44,94h.3V88.28h-3c.78,3.12,1.7,5.19,2.68,5.76Zm.83,0h.3c1-.58,1.91-2.64,2.69-5.76h-3V94Zm.3-56.44h-.3v5.49h2.92c-.76-3-1.66-4.92-2.61-5.48Zm2.25.15a13.11,13.11,0,0,1,4.4,5.33h4.08a16.36,16.36,0,0,0-8.48-5.33Zm4.66,5.86c.28.59.56,1.22.82,1.87A40.08,40.08,0,0,1,268,50.69h6a29.65,29.65,0,0,0-2.66-5,24.81,24.81,0,0,0-1.58-2.11Zm2.59,7.61a58.3,58.3,0,0,1,1.19,7.08h7a37.1,37.1,0,0,0-2-7.08Zm1.25,7.61c.22,2.18.34,4.46.34,6.8h7.26a41.38,41.38,0,0,0-.58-6.8Zm.34,7.33c0,2.2-.12,4.33-.32,6.39h7a41.75,41.75,0,0,0,.54-6.39Zm-4.3,22.12a13.42,13.42,0,0,1-4.54,5.61,16.53,16.53,0,0,0,8.73-5.61ZM255.2,93.89a13.42,13.42,0,0,1-4.54-5.61h-4.19a16.53,16.53,0,0,0,8.73,5.61Zm-7.13-43.2a40.13,40.13,0,0,1,1.65-5.21q.39-1,.82-1.87h-4.27a24.44,24.44,0,0,0-1.58,2.11,29.77,29.77,0,0,0-2.66,5Zm2.73-7.61a13.1,13.1,0,0,1,4.4-5.33,16.37,16.37,0,0,0-8.48,5.33Zm5.83-5.43c-1.94.63-3.74,2.55-5.24,5.43h2.91a13.8,13.8,0,0,1,2.34-5.43Zm-8.09,43A40,40,0,0,0,250.2,86q.37.94.78,1.78h3.11c-.12-.52-.24-1.07-.35-1.64-.32-1.63-.61-3.46-.85-5.44Zm2.7,7.6c1.54,3,3.39,5.06,5.39,5.71-.91-1-1.73-3-2.41-5.71ZM259.39,94c2-.65,3.85-2.68,5.39-5.71h-3c-.68,2.72-1.5,4.7-2.41,5.71Zm9.35-35.69a57.48,57.48,0,0,0-1.2-7.08h-4.38c.26,2.19.46,4.57.6,7.08Zm-1.33-7.61a39.93,39.93,0,0,0-1.59-5q-.44-1.09-.91-2.06h-3c.15.61.29,1.25.42,1.92.31,1.56.58,3.29.81,5.16Zm-2.78-7.61c-1.51-2.87-3.3-4.8-5.24-5.43a13.79,13.79,0,0,1,2.33,5.43ZM235,50.69h6.42a30.48,30.48,0,0,1,2.79-5.26q.64-1,1.34-1.82h-4.46a28.07,28.07,0,0,0-2.3,2.15A28.47,28.47,0,0,0,235,50.69Zm23.24,0h4.29c-.23-1.84-.5-3.54-.8-5.06q-.21-1.07-.44-2h-3v7.08Zm-17,.53h-6.52a29,29,0,0,0-2.92,7.08h7.43a37.41,37.41,0,0,1,2-7.08Zm-8.67-8.13h3.56a38.54,38.54,0,0,1,10.18-4.56,53.28,53.28,0,0,0-13.74,4.56Zm37.14-4.56a38.51,38.51,0,0,1,10.18,4.56h3.56a53.24,53.24,0,0,0-13.74-4.56Zm29.48,34.54h-6.82a26,26,0,0,1-3.55,7.08h5.93a24.35,24.35,0,0,0,4.44-7.08Zm-4.91,7.61h-5.83a30.92,30.92,0,0,1-5.37,5.59q-1,.77-2,1.48H285q1.64-.9,3.15-1.91a34.43,34.43,0,0,0,6.13-5.17ZM284,88.28h-3.68a38.37,38.37,0,0,1-10.61,4.84A52.92,52.92,0,0,0,284,88.28Zm-37.69,4.84a38.35,38.35,0,0,1-10.61-4.84H232a52.94,52.94,0,0,0,14.29,4.84Zm20.06-54.85a27.32,27.32,0,0,1,8.72,4.83h3.81a38.82,38.82,0,0,0-12.53-4.83Zm9.05,50a27.35,27.35,0,0,1-9.05,5.11,38.73,38.73,0,0,0,13-5.11Zm-25.78,5.11a27.35,27.35,0,0,1-9.05-5.11h-3.93a38.73,38.73,0,0,0,13,5.11Zm-8.72-50.3a27.31,27.31,0,0,1,8.72-4.83,38.87,38.87,0,0,0-12.53,4.83ZM252.82,38a26.55,26.55,0,0,0-11.05,5.13H246a18.23,18.23,0,0,1,6.8-5.13ZM231.67,58.82a29.5,29.5,0,0,0-.84,6.8h7.73a42.31,42.31,0,0,1,.58-6.8Zm9.75,29.45a26.55,26.55,0,0,0,11.4,5.41,18.38,18.38,0,0,1-7-5.41Zm21.78,5.41a26.55,26.55,0,0,0,11.4-5.41h-4.36a18.38,18.38,0,0,1-7,5.41Zm11.05-50.6A26.55,26.55,0,0,0,263.2,38a18.24,18.24,0,0,1,6.8,5.13ZM254.63,87.75h3.11V80.67h-4.32c.24,1.94.52,3.74.83,5.34q.18.91.38,1.74Zm3.64,0h3.11c.13-.55.26-1.13.38-1.74.32-1.6.6-3.4.83-5.34h-4.32Z"></path><polygon class="c" points="458.96 33.06 434.63 67 422.28 50.93 422.28 68.26 434.63 81.44 458.96 45.88 458.96 33.06 458.96 33.06"></polygon><path class="c" d="M437,41.18a37,37,0,0,1,10.9,1.62l.54-1.08.91-.36L449,40.28l2.91-6.86-.18-.54h0a1.29,1.29,0,0,0,1.09-.54,1.1,1.1,0,0,0-.54-1.26,1.16,1.16,0,0,0-1.09,0v-.18a7.6,7.6,0,0,0,.36-.9l.54.54a.94.94,0,0,0,1.27-.54,1.05,1.05,0,0,0-.54-1.26,2.72,2.72,0,0,0-1.09.18V28c.36,0,.54.18.91.18.54-.18.91-.54.73-1.08a1,1,0,0,0-.91-.9,4,4,0,0,0-.91.54,1.37,1.37,0,0,0-.36-.72c.36,0,.54,0,.73-.18a.8.8,0,0,0,.54-1.08.94.94,0,0,0-1.27-.54c-.18.18-.54.36-.73.72-.18-.18-.36-.54-.54-.72a1.38,1.38,0,0,0,.73-.36c.36-.36.18-.9-.18-1.26a.88.88,0,0,0-1.27,0,2.55,2.55,0,0,0-.36,1.08,4,4,0,0,0-.91-.54,1.41,1.41,0,0,0,.73-.72.8.8,0,0,0-.54-1.08.94.94,0,0,0-1.27.54c-.18.18,0,.72.18,1.08a3.57,3.57,0,0,0-1.27-.18,1.37,1.37,0,0,0,.36-.72,1,1,0,0,0-.91-.9,1,1,0,0,0-1.09.9c0,.36.36.72.54.9a3.38,3.38,0,0,1-1.27.36c0-.18.18-.54,0-.72-.18-.54-.73-.9-1.09-.72-.54.18-.91.72-.73,1.08a1.81,1.81,0,0,0,.73.9,1.39,1.39,0,0,0-.91.36.67.67,0,0,0-.54.18,1.11,1.11,0,0,0,.18-1.26c0-.36-.54-.72-1.09-.54a.76.76,0,0,0-.54,1.08,1.2,1.2,0,0,0,.73.9,2.18,2.18,0,0,1-1.27,0v-.9l-.36-.36c.54-.72.91-.9.91-2a2.7,2.7,0,0,0-.91-2.17,2.18,2.18,0,0,1-1.09-1.63v-.36a4,4,0,0,1,1.45.18v-2a2.05,2.05,0,0,1-1.45.54v-.54a5.91,5.91,0,0,1,.54-1.08h-2a5.91,5.91,0,0,1,.54,1.08v.54a3.34,3.34,0,0,1-1.64-.36v1.81a5.05,5.05,0,0,1,1.64-.18v.36a4,4,0,0,1-1.09,1.81c-.54.18-.91,1.08-.91,2,0,1.08.36,1.26.91,2l-.54.36v.9s-.18.18-1.09,0a1.2,1.2,0,0,0,.73-.9c.18-.36-.18-.9-.54-1.08a1.11,1.11,0,0,0-1.27.54,3.05,3.05,0,0,0,.18,1.26c0-.18-.18-.18-.36-.18-.36-.18-.54-.18-.91-.36.36-.18.54-.54.73-.72a1.21,1.21,0,0,0-.73-1.26c-.55-.18-.91.18-1.09.72a.8.8,0,0,0,0,.9,12.5,12.5,0,0,0-1.45-.54,1,1,0,0,0,.54-.9.91.91,0,0,0-1.82,0,3,3,0,0,0,.36.9c-.36-.18-.91,0-1.27,0a2.28,2.28,0,0,0,.18-1.08,1,1,0,0,0-1.27-.54.93.93,0,0,0-.54,1.26c.18.18.36.54.54.54a4,4,0,0,1-.91.54,1.19,1.19,0,0,0-.18-1.08,1.1,1.1,0,0,0-1.45,0,.87.87,0,0,0,0,1.26c.18.18.54.36.73.54a2.52,2.52,0,0,1-.73.54c0-.36-.36-.54-.54-.72a1,1,0,1,0-.73,1.81h.73a1.36,1.36,0,0,0-.36.72,1.39,1.39,0,0,0-.91-.36c-.54-.18-.91.18-.91.72a.8.8,0,0,0,.73,1.08,1.64,1.64,0,0,0,.91-.18v.9a1.56,1.56,0,0,0-1.27,0,.87.87,0,0,0-.36,1.08.81.81,0,0,0,1.09.54c.36,0,.54-.36.73-.54a7.6,7.6,0,0,0,.36.9v.18h-1.09a1.1,1.1,0,0,0-.54,1.26,1.3,1.3,0,0,0,1.09.54h0l-.18.54,2.91,6.86-.36,1.08.91.36.54,1.08A37.37,37.37,0,0,1,437,41.18Zm-3.63-4.33c.54-1.08,1.27-2,2.54-2-.18,1.26-.73,2.53-2.54,2.53a3.07,3.07,0,0,1-3.09-2.53.58.58,0,0,1,.54-.54.63.63,0,0,1,.55.9,1.28,1.28,0,0,0,1.27-1.44c0-.54-.73-1.08-1.45-1.08a2,2,0,0,0-1.09.36A7,7,0,0,0,429,30.71c-.73-.54-.73-.54-.91.18a4,4,0,0,0,0,2.53c-.36,0-1.82.18-1.82,1.44,0,.9.55,1.26.91,1.26a1.39,1.39,0,0,0,.91-.36c-.36-.18-.36-.18-.36-.36a.81.81,0,0,1,.54-.54c.54,0,.73.54.73,1.08a2.09,2.09,0,0,1-2.18,2.17,2.06,2.06,0,0,1-2.18-1.62,2.1,2.1,0,0,1,1.82,1.26l.36-.18-2.18-5.24-.36.18a3.13,3.13,0,0,1,.54,1.26c0,.54-.36,1.26-.73,1.26-.36-.18-.36-.36-.36-1.26a5.41,5.41,0,0,1,.54-2.17,7,7,0,0,1-1.09-3.07A4.57,4.57,0,0,1,427.73,24c2.54,0,3.27,1.44,7.08,1.8v4a1.38,1.38,0,0,1-.73.36v.36c1.09.9,1.82.9,2,2.53-1.27,0-1.82-.36-2.54-2H433v5.78Zm16.71-3.07c0,.9,0,1.08-.36,1.26-.36,0-.55-.72-.55-1.26a7.35,7.35,0,0,1,.36-1.26l-.36-.18L447,37.57l.36.18a2.1,2.1,0,0,1,1.82-1.26A2.06,2.06,0,0,1,447,38.11a2.09,2.09,0,0,1-2.18-2.17c0-.54.18-1.08.73-1.08a.82.82,0,0,1,.55.54c0,.18,0,.18-.18.36,0,.18.36.36.73.36a1.2,1.2,0,0,0,1.09-1.26c0-1.26-1.64-1.44-2-1.44a4,4,0,0,0,0-2.53c-.18-.72-.18-.72-.91-.18a7,7,0,0,0-1.09,2.35,2,2,0,0,0-1.09-.36c-.73,0-1.45.54-1.45,1.08a1.29,1.29,0,0,0,1.27,1.44.63.63,0,0,1,.54-.9.58.58,0,0,1,.54.54,3.07,3.07,0,0,1-3.09,2.53c-1.82,0-2.36-1.26-2.54-2.53a2.72,2.72,0,0,1,2.54,2h.36V31.07h-.54c-.73,1.62-1.27,2-2.54,2,.18-1.62.91-1.62,2.18-2.53v-.36a1.39,1.39,0,0,1-.91-.36V25.66c3.09-.36,4.36-1.81,6.9-1.81a5,5,0,0,1,4.72,4.69,7,7,0,0,1-1.09,3.07,5.41,5.41,0,0,1,.54,2.17Z"></path><polygon class="c" points="435.72 23.85 435.72 23.85 435.72 29.99 435.72 29.99 435.72 23.85 435.72 23.85"></polygon><path class="c" d="M437,19.34c.18,0,.36,0,.36.54v.54c0,.54,0,.54.73.54s1.09.18,1.09.36-.18.36-.54.36c0,0-1.45-.18-1.64-.18-.36,0-1.82.18-1.82.18-.36,0-.36-.18-.36-.36s.18-.36.91-.36.73,0,.73-.54v-.54c0-.54.18-.54.54-.54Z"></path><polygon class="c" points="438.08 29.99 438.08 29.99 438.08 23.85 438.08 23.85 438.08 29.99 438.08 29.99"></polygon><path class="c" d="M437,24.39c.18,0,.36-.18.36-.54s-.18-.54-.36-.54a.54.54,0,1,0,0,1.08Z"></path><path class="c" d="M437,25.84c.18,0,.36-.36.36-.54,0-.36-.18-.54-.36-.54a.48.48,0,0,0-.54.54.58.58,0,0,0,.54.54Z"></path><path class="c" d="M437,27.1a.39.39,0,0,0,.36-.36c0-.36-.18-.54-.36-.54a.48.48,0,0,0-.54.54c0,.18.18.36.54.36Z"></path><path class="c" d="M437,28.54c.18,0,.36-.18.36-.54,0-.18-.18-.54-.36-.54a.58.58,0,0,0-.54.54.48.48,0,0,0,.54.54Z"></path><path class="c" d="M437,29.81c.18,0,.36-.18.36-.54a.39.39,0,0,0-.36-.36c-.36,0-.54.18-.54.36a.48.48,0,0,0,.54.54Z"></path><path class="c" d="M432.27,39.56c0,.54-.36.54-.91.72-.36,0-1.45.18-1.63.18a.48.48,0,0,1-.54-.54c0-.54.91-.9,2.18-.9.54,0,.91.18.91.54Z"></path><polygon class="c" points="425.55 41.36 424.82 41.18 425.19 40.46 425.91 40.64 425.55 41.36 425.55 41.36"></polygon><polygon class="c" points="436.81 38.29 437.9 39.38 436.81 40.28 435.72 39.38 436.81 38.29 436.81 38.29"></polygon><path class="c" d="M441.53,39.56c0,.54.36.54.91.72.18,0,1.27.18,1.63.18a.58.58,0,0,0,.54-.54c0-.54-.91-.9-2.18-.9-.54,0-.91.18-.91.54Z"></path><polygon class="c" points="448.07 41.36 448.79 41.18 448.61 40.46 447.88 40.64 448.07 41.36 448.07 41.36"></polygon><path class="c" d="M427.18,85.59s.18,2.71.18,5.6c0,2.71-.18,6.14-.18,6.14h2.91s-.18-3.79-.18-6.14.18-5.6.18-5.6Z"></path><path class="c" d="M429.73,91.19s1.82-2,2.54-2.89l2.18-2.71h1.82s-3.27,3.79-4,4.51l-1.82,1.44-.73-.36Z"></path><polygon class="c" points="431.72 90.47 436.63 97.33 433.54 97.33 429.91 91.91 429.73 91.19 431.72 90.47 431.72 90.47"></polygon><path class="c" d="M410.48,85.59H413v4.69c0,1.81-.54,6.32,3.09,6.32,2.91,0,3.27-2.35,3.27-4.69V85.59H421v5.6c-.18,2.71,0,6.32-5.45,6.32s-5.08-4-5.08-4.87v-7Z"></path><path class="c" d="M442.07,97.33a35,35,0,0,1,1.63-4.15c.91-2.53,1.64-4.15,1.64-4.15s1.27,2.89,2,4.69c.54,1.81,1.27,3.61,1.27,3.61h2.91s-1.27-3.07-2.54-6c-.73-1.62-2.18-5.78-2.18-5.78h-1.45s-2.72,6.32-3.27,8.12c-.73,1.62-1.63,3.61-1.63,3.61Z"></path><polygon class="c" points="442.98 93.89 448.07 93.89 448.07 92.81 442.98 92.81 442.98 93.89 442.98 93.89"></polygon><path class="c" d="M462.78,86.13l-.36,1.81-.36-.18a2.23,2.23,0,0,0-2-1.26c-1.45,0-1.82.9-1.82,1.62,0,.54.54,1.44,2,2.17,1.45.54,3.09,1.44,3.09,3.61s-1.82,3.61-4.36,3.61c-2.36,0-2.91-.72-2.91-.72l.54-2h.18A2.45,2.45,0,0,0,459,96.6c1.82,0,2.36-.72,2.36-2,0-1.08-1.64-1.81-2.91-2.35A4,4,0,0,1,456.06,89a3.71,3.71,0,0,1,4-3.61,4.59,4.59,0,0,1,2.72.72Z"></path><path class="a" d="M482.19,123.31H390.7V8.34h91.49Zm-89-2.51h86.47v-110H393.21Z"></path><path class="a" d="M405.94,107.1l-.43,0-.43,0q.55-2.89.94-6.37l.35,0,.34,0q1.22,2.69,2.13,4.44a40.82,40.82,0,0,0,2.08-4.44l.39,0,.38,0q.3,3.39.87,6.37l-.76,0-.79,0q-.12-2.23-.39-4.25-1.65,3.43-2,4.32l-.19,0-.19,0q-.38-1-2-4.14Q406,105.55,405.94,107.1Z"></path><path class="a" d="M413,107.1q1.35-2.79,2.69-6.44l.35,0,.38,0A62.1,62.1,0,0,0,419,107.1l-.85,0-.81,0q-.24-.83-.6-1.83h0a10.31,10.31,0,0,0-1.12-.07q-.33,0-1.11.07h0q-.3.8-.6,1.83l-.48,0Zm1.83-2.54a5.52,5.52,0,0,0,.89.07,3,3,0,0,0,.8-.07l-.83-2.08Z"></path><path class="a" d="M419.88,107.1q.07-1.24.07-3.94,0-1.15-.07-2.44l.44,0,.44,0q1.05,1.32,4,4.32l0-1.72q0-.81-.05-2.61l.39,0,.38,0q-.07,1.77-.07,3.58v1.35q0,.66.07,1.44l-.4,0-.41,0a58,58,0,0,0-4-4.45h0v1.67q0,1.8.07,2.78l-.38,0Z"></path><path class="a" d="M426.3,107.1q1.35-2.79,2.69-6.44l.35,0,.38,0a62.1,62.1,0,0,0,2.62,6.44l-.85,0-.81,0q-.24-.83-.6-1.83h0a10.31,10.31,0,0,0-1.12-.07q-.33,0-1.11.07h0q-.3.8-.6,1.83l-.48,0Zm1.83-2.54a5.52,5.52,0,0,0,.89.07,3,3,0,0,0,.8-.07l-.83-2.08Z"></path><path class="a" d="M437.4,106.49a5,5,0,0,0,.07-.92,9.36,9.36,0,0,0-.07-1.32l.73,0,.73,0a8.81,8.81,0,0,0-.07,1.24V106a6,6,0,0,0,.07.84,9.12,9.12,0,0,1-2.37.36,4.07,4.07,0,0,1-2.7-.85,2.92,2.92,0,0,1-1-2.37,3.1,3.1,0,0,1,1-2.47,3.88,3.88,0,0,1,2.63-.9,5.5,5.5,0,0,1,1.09.12,5.12,5.12,0,0,1,1.22.43,4.14,4.14,0,0,0-.27.94h-.15a1.94,1.94,0,0,0-.7-.64,2,2,0,0,0-1-.26,2.14,2.14,0,0,0-1.66.73,2.91,2.91,0,0,0-.66,2,3,3,0,0,0,.58,2,2,2,0,0,0,1.65.69A3.2,3.2,0,0,0,437.4,106.49Z"></path><path class="a" d="M440.23,107.14q.07-.68.07-2.2v-2q0-1.28-.07-2.25a15.63,15.63,0,0,0,1.82.07,12.52,12.52,0,0,0,1.71-.07q0,.28,0,.41t0,.42q-1.32-.07-2.11-.07v2h.54q.71,0,1.51-.07,0,.28,0,.42t0,.41a10.37,10.37,0,0,0-1.47-.07h-.58v2.24h.45q.76,0,1.66-.07,0,.28,0,.42c0,.09,0,.23,0,.41q-1.32-.07-2.11-.07Q441.08,107.07,440.23,107.14Z"></path><path class="a" d="M445.35,107.1l-.43,0-.43,0q.55-2.89.94-6.37l.35,0,.34,0q1.22,2.69,2.13,4.44a40.79,40.79,0,0,0,2.08-4.44l.39,0,.38,0q.3,3.39.87,6.37l-.76,0-.79,0q-.12-2.23-.39-4.25-1.65,3.43-2,4.32l-.19,0-.19,0q-.38-1-2-4.14Q445.39,105.55,445.35,107.1Z"></path><path class="a" d="M453,107.14q.07-.68.07-2.2v-2q0-1.28-.07-2.25a15.63,15.63,0,0,0,1.82.07,12.52,12.52,0,0,0,1.71-.07q0,.28,0,.41t0,.42q-1.32-.07-2.11-.07v2H455q.71,0,1.51-.07,0,.28,0,.42t0,.41a10.37,10.37,0,0,0-1.47-.07h-.58v2.24h.45q.76,0,1.66-.07,0,.28,0,.42c0,.09,0,.23,0,.41q-1.32-.07-2.11-.07Q453.88,107.07,453,107.14Z"></path><path class="a" d="M457.75,107.1q.07-1.24.07-3.94,0-1.15-.07-2.44l.44,0,.44,0q1.05,1.32,4,4.32l0-1.72q0-.81-.05-2.61l.39,0,.38,0q-.07,1.77-.07,3.58v1.35q0,.66.07,1.44l-.4,0-.41,0a58,58,0,0,0-4-4.45h0v1.67q0,1.8.07,2.78l-.38,0Z"></path><path class="a" d="M464.28,101.5q0-.27,0-.42t0-.41q1.27.07,2.38.07t2.38-.07a3.21,3.21,0,0,0,0,.42,2.92,2.92,0,0,0,0,.41q-.93-.07-1.71-.07v.4q0,3.13.07,5.27l-.74,0-.74,0q.07-2.09.07-5.27v-.4Q465.09,101.45,464.28,101.5Z"></path><path class="a" d="M418.72,115.35a4.39,4.39,0,0,0,.25-1.15h.23a1.39,1.39,0,0,0,.47.75,1.24,1.24,0,0,0,.75.24,1.11,1.11,0,0,0,.82-.28.89.89,0,0,0,.29-.66.78.78,0,0,0-.36-.67,8.83,8.83,0,0,0-1.14-.66,2.58,2.58,0,0,1-1-.76,1.8,1.8,0,0,1-.28-1,1.85,1.85,0,0,1,.58-1.43,2.16,2.16,0,0,1,1.52-.54,2.74,2.74,0,0,1,.77.11,2.53,2.53,0,0,1,.69.31,5.45,5.45,0,0,0-.29.93h-.17a1.13,1.13,0,0,0-.43-.6,1.14,1.14,0,0,0-.63-.18,1,1,0,0,0-.68.23.74.74,0,0,0-.27.6.82.82,0,0,0,.35.69,7.58,7.58,0,0,0,1.07.61,2.49,2.49,0,0,1,1,.78,1.75,1.75,0,0,1,.31,1,2,2,0,0,1-.62,1.47,2.27,2.27,0,0,1-1.68.62,3.79,3.79,0,0,1-.78-.08A3.28,3.28,0,0,1,418.72,115.35Z"></path><path class="a" d="M423,109.27l.91,0,.87,0a21,21,0,0,0,1.31,2.89,20.07,20.07,0,0,0,1.3-2.89l.49,0,.49,0q-.47.74-1,1.85t-.91,1.85v1.19a11.49,11.49,0,0,0,.07,1.48l-.74,0-.75,0a9.64,9.64,0,0,0,.07-1.49V113q-.33-.59-1-1.77A20.8,20.8,0,0,0,423,109.27Z"></path><path class="a" d="M429,115.35a4.4,4.4,0,0,0,.25-1.15h.23a1.39,1.39,0,0,0,.47.75,1.24,1.24,0,0,0,.75.24,1.11,1.11,0,0,0,.82-.28.89.89,0,0,0,.29-.66.78.78,0,0,0-.36-.67,8.82,8.82,0,0,0-1.14-.66,2.58,2.58,0,0,1-1-.76,1.8,1.8,0,0,1-.28-1,1.85,1.85,0,0,1,.58-1.43,2.16,2.16,0,0,1,1.52-.54,2.74,2.74,0,0,1,.77.11,2.53,2.53,0,0,1,.69.31,5.45,5.45,0,0,0-.29.93h-.17a1.13,1.13,0,0,0-.43-.6,1.14,1.14,0,0,0-.63-.18,1,1,0,0,0-.68.23.74.74,0,0,0-.27.6.82.82,0,0,0,.35.69,7.58,7.58,0,0,0,1.07.61,2.49,2.49,0,0,1,1,.78,1.75,1.75,0,0,1,.31,1,2,2,0,0,1-.62,1.47,2.27,2.27,0,0,1-1.68.62,3.79,3.79,0,0,1-.78-.08A3.28,3.28,0,0,1,429,115.35Z"></path><path class="a" d="M433.32,110.06q0-.27,0-.42t0-.41q1.27.07,2.38.07t2.38-.07a3.21,3.21,0,0,0,0,.42,2.91,2.91,0,0,0,0,.41q-.93-.07-1.71-.07v.4q0,3.13.07,5.27l-.74,0-.74,0q.07-2.09.07-5.27V110Q434.12,110,433.32,110.06Z"></path><path class="a" d="M438.94,115.69q.07-.68.07-2.2v-2q0-1.28-.07-2.25a15.71,15.71,0,0,0,1.82.07,12.58,12.58,0,0,0,1.71-.07q0,.28,0,.41t0,.42q-1.32-.07-2.11-.07v2h.54q.71,0,1.51-.07c0,.19,0,.33,0,.42s0,.23,0,.41a10.43,10.43,0,0,0-1.47-.07h-.58v2.24h.45q.76,0,1.66-.07,0,.28,0,.42c0,.09,0,.23,0,.41q-1.32-.07-2.11-.07Q439.79,115.62,438.94,115.69Z"></path><path class="a" d="M444.06,115.65l-.43,0-.43,0q.55-2.89.94-6.37l.35,0,.34,0Q446,112,447,113.72a40.77,40.77,0,0,0,2.08-4.44l.39,0,.38,0q.3,3.39.87,6.37l-.76,0-.79,0q-.12-2.23-.39-4.25-1.65,3.43-2,4.32l-.19,0-.19,0q-.38-1-2-4.14Q444.1,114.1,444.06,115.65Z"></path><path class="a" d="M451.47,115.35a4.39,4.39,0,0,0,.25-1.15h.23a1.39,1.39,0,0,0,.47.75,1.24,1.24,0,0,0,.75.24,1.11,1.11,0,0,0,.82-.28.89.89,0,0,0,.29-.66.78.78,0,0,0-.36-.67,8.83,8.83,0,0,0-1.14-.66,2.58,2.58,0,0,1-1-.76,1.8,1.8,0,0,1-.28-1,1.85,1.85,0,0,1,.58-1.43,2.16,2.16,0,0,1,1.52-.54,2.74,2.74,0,0,1,.77.11,2.53,2.53,0,0,1,.69.31,5.46,5.46,0,0,0-.29.93h-.17a1.13,1.13,0,0,0-.43-.6,1.14,1.14,0,0,0-.63-.18,1,1,0,0,0-.68.23.74.74,0,0,0-.27.6.82.82,0,0,0,.35.69,7.58,7.58,0,0,0,1.07.61,2.49,2.49,0,0,1,1,.78,1.75,1.75,0,0,1,.31,1,2,2,0,0,1-.62,1.47,2.27,2.27,0,0,1-1.68.62,3.79,3.79,0,0,1-.78-.08A3.28,3.28,0,0,1,451.47,115.35Z"></path></svg>