<svg xmlns="http://www.w3.org/2000/svg" viewBox="0 0 518.45 182.6"><defs><style>.a{fill:#fff;}</style></defs><title>Logo-SMOKE</title><path class="a" d="M95.69,144.81v20.64a16.49,16.49,0,0,1-4.93,12,16,16,0,0,1-11.82,5l-62.07.13a16.11,16.11,0,0,1-13-6.1A17.07,17.07,0,0,1,0,165.2V160a.23.23,0,0,1,.26-.26l15.58-.13a.23.23,0,0,1,.26.26v.78a5.46,5.46,0,0,0,5.45,5.71l52.59-.13A5.18,5.18,0,0,0,78.43,164a5.8,5.8,0,0,0,1-3.51V147.8a3,3,0,0,0-.84-2.08,2.8,2.8,0,0,0-2.14-.91H14.8a14.24,14.24,0,0,1-10.45-4.35A14.24,14.24,0,0,1,0,130V109.24a16.48,16.48,0,0,1,4.93-12,16.17,16.17,0,0,1,11.95-5H78.81a16.17,16.17,0,0,1,11.95,5,16.49,16.49,0,0,1,4.93,12v5.71a.23.23,0,0,1-.26.26H79.72a.23.23,0,0,1-.26-.26v-.78a5.39,5.39,0,0,0-1.62-4,5.55,5.55,0,0,0-4.09-1.62H21.81a5.6,5.6,0,0,0-4,1.62,5.28,5.28,0,0,0-1.69,4V127a2.79,2.79,0,0,0,.91,2.14,3,3,0,0,0,2.08.84H80.89a14.85,14.85,0,0,1,14.8,14.8Z"></path><path class="a" d="M217.8,182.6H200.27V125.73L173,182.6H152.49l-27.27-56.87V182.6H107.69V92.23l20,.13,35.06,74.4L197.8,92.23h20Z"></path><path class="a" d="M308.62,92.23a19.95,19.95,0,0,1,19.87,19.87v50.64a19.95,19.95,0,0,1-19.87,19.87H249.93a19.84,19.84,0,0,1-19.87-19.87V112.09a19.84,19.84,0,0,1,19.87-19.87Zm3.64,66V116.64a8.2,8.2,0,0,0-8.18-8.18H254.35a8.2,8.2,0,0,0-8.18,8.18v41.55a8.2,8.2,0,0,0,8.18,8.18h49.73a8.2,8.2,0,0,0,8.18-8.18Z"></path><path class="a" d="M429.62,182.6H407.16l-48.82-43.24V182.6H340.68V92.23h17.66v40.64l46.09-40.64H426.9l-48.17,43.89Z"></path><path class="a" d="M518.45,107.16H456.77v22.07h50.9v16.36h-50.9v22.2h61.68v14.8H439V92.23h79.46Z"></path><path class="a" d="M91,.3C86.49,5,82.51,9.05,78.11,13.68H58.47c-2.86.2-3.23,3.89.65,4.56,2.62.35,4.76.6,6.88.94,8.5,1.32,13.87,7.79,13.29,16A15.6,15.6,0,0,1,64.14,49.66c-5.83.17-17.52.12-17.52.12H44.9V36.83H64.58c3.51-.6,2.71-4,.46-4.73a21.32,21.32,0,0,0-3.71-.52C51,31.29,43,21.81,46,11.23A6.15,6.15,0,0,0,46.69,9l-5,4.43c-4.43,0-9.1-.23-13.74.09a20.15,20.15,0,0,0-8.09,2c-6.6,3.58-7.76,12.54-2.68,18.06,3.23,3.51,7.32,3.42,12.19,2.74,0-2.76.09-8.3.09-8.3V19.29l11.89,0V49.71H33.9s-6.67,0-10-.07C13.8,49.49,6.76,44.51,2.71,35.54S-.1,17.84,6.16,10.22a26.08,26.08,0,0,1,21-9.92Z"></path><polygon class="a" points="115.45 20.77 136.25 0.33 151.71 0.33 102.53 49.9 102.53 29.02 82.34 49.8 82.35 13.57 94.5 0.2 94.5 21.01 105.09 10.54 115.45 0 115.45 20.77"></polygon><polygon class="a" points="142.01 13.93 155.21 0.43 185.45 0.43 172.3 13.4 155.63 13.4 155.64 18.62 172.33 18.62 172.33 31.37 155.57 31.37 155.57 49.81 142.01 49.81 142.01 13.93"></polygon></svg>