<svg xmlns="http://www.w3.org/2000/svg" viewBox="0 0 520.21 195.19"><defs><style>.a{fill:#fff;}.b{fill:#ff0;}</style></defs><title>SPF 70</title><path class="a" d="M41.19,19.32H2.37v49.1H41.19A11.57,11.57,0,0,0,52.77,56.84V30.9a11.24,11.24,0,0,0-3.38-8.15A11.16,11.16,0,0,0,41.19,19.32Zm-.67,34.94A1.71,1.71,0,0,1,40,55.6a1.89,1.89,0,0,1-1.41.57H14.63V31.57H38.54a2,2,0,0,1,2,2Z"></path><polygon class="a" points="102.33 19.32 102.33 56.88 68.8 56.88 68.8 50.03 94.1 50.03 94.1 37.72 68.8 37.72 68.8 30.93 99.46 30.93 99.46 19.32 55.78 19.32 55.78 68.42 115.36 68.42 115.36 50.16 141.3 50.16 141.3 38.49 115.36 38.49 115.36 30.93 149.53 30.93 149.53 68.42 193.21 68.42 193.21 56.88 162.56 56.88 162.56 50.03 187.85 50.03 187.85 37.72 162.56 37.72 162.56 30.93 193.21 30.93 193.21 19.32 102.33 19.32"></polygon><path class="a" d="M286.36,19.32H247.54v49.1h38.81a11.57,11.57,0,0,0,11.58-11.58V30.9a11.24,11.24,0,0,0-3.38-8.15A11.16,11.16,0,0,0,286.36,19.32Zm-.67,34.94a1.72,1.72,0,0,1-.56,1.34,1.89,1.89,0,0,1-1.41.57H259.8V31.57h23.91a2,2,0,0,1,2,2Z"></path><path class="a" d="M360.4,68.42V55H372.8l9,13.42h14.39l-9-13.53a10.44,10.44,0,0,0,6-3.31,10,10,0,0,0,2.71-7V29.8a10.48,10.48,0,0,0-10.48-10.48H347.5V56.88H314V50h25.3V37.72H314V30.93h30.65V19.32H300.94v49.1ZM383.57,42.2a.57.57,0,0,1-.19.46.42.42,0,0,1-.36.16H360.4V31.57H383a.47.47,0,0,1,.39.16.54.54,0,0,1,.16.46Z"></path><polygon class="b" points="231.58 49.04 211.75 19.32 196.09 19.32 196.09 68.42 208.98 87.73 208.98 37.74 229.45 68.42 244.48 68.42 244.48 19.32 231.58 0 231.58 49.04"></polygon><path class="b" d="M93.26,158.37v20.12a16.07,16.07,0,0,1-4.81,11.71,15.61,15.61,0,0,1-11.52,4.87l-60.49.13A15.7,15.7,0,0,1,3.8,189.24a16.63,16.63,0,0,1-3.8-11v-5.06a.22.22,0,0,1,.25-.25l15.19-.13a.22.22,0,0,1,.25.25v.76A5.32,5.32,0,0,0,21,179.37l51.25-.13a5,5,0,0,0,4.18-2.15,5.66,5.66,0,0,0,1-3.42v-12.4a2.9,2.9,0,0,0-.82-2,2.73,2.73,0,0,0-2.09-.89H14.43a13.88,13.88,0,0,1-10.19-4.24A13.88,13.88,0,0,1,0,143.94V123.7A16.06,16.06,0,0,1,4.81,112a15.76,15.76,0,0,1,11.64-4.87H76.81A15.76,15.76,0,0,1,88.45,112a16.07,16.07,0,0,1,4.81,11.71v5.57a.22.22,0,0,1-.25.25H77.7a.22.22,0,0,1-.25-.25v-.76a5.25,5.25,0,0,0-1.58-3.86,5.41,5.41,0,0,0-4-1.58H21.26a5.46,5.46,0,0,0-3.92,1.58,5.15,5.15,0,0,0-1.65,3.86V141a2.72,2.72,0,0,0,.89,2.09,2.88,2.88,0,0,0,2,.82H78.84a14.47,14.47,0,0,1,14.43,14.43Z"></path><path class="b" d="M187.92,152.55a16.42,16.42,0,0,1-16.45,16.32H121.1v26.32H104V107.12h67.45A15.76,15.76,0,0,1,183.11,112a15.93,15.93,0,0,1,4.81,11.58Zm-21,.63a4.9,4.9,0,0,0,3.67-1.58,5.21,5.21,0,0,0,1.52-3.73V128.25a5.15,5.15,0,0,0-1.52-3.8,5,5,0,0,0-3.67-1.52H121.1v30.24Z"></path><path class="b" d="M266.88,144.7v14.68H216v35.81H198.67V107.12h78.84v14.55H216v23Z"></path><path class="b" d="M413.54,107.12v19.49l-41.89,68.59H354.32l43.4-72.26H331.16V107.12Z"></path><path class="b" d="M500.85,107.12a19.44,19.44,0,0,1,19.36,19.36v49.35a19.44,19.44,0,0,1-19.36,19.36h-57.2a19.33,19.33,0,0,1-19.36-19.36V126.48a19.33,19.33,0,0,1,19.36-19.36Zm3.54,64.28V130.91a8,8,0,0,0-8-8H448a8,8,0,0,0-8,8V171.4a8,8,0,0,0,8,8h48.47a8,8,0,0,0,8-8Z"></path></svg>